<?xml version="1.0" encoding="utf-8"?>
<!-- Generator: Adobe Illustrator 19.0.0, SVG Export Plug-In . SVG Version: 6.00 Build 0)  -->
<svg version="1.1" id="Layer_1" xmlns="http://www.w3.org/2000/svg" xmlns:xlink="http://www.w3.org/1999/xlink" x="0px" y="0px"
	 viewBox="0 0 612 792" style="enable-background:new 0 0 612 792;" xml:space="preserve">
<style type="text/css">
	.st0{fill:#FEFEFE;}
	.st1{fill:#484848;}
	.st2{fill:#565656;}
	.st3{fill:#1A1A1A;}
	.st4{fill:#CCCCCC;}
	.st5{fill:#0C0C0C;}
	.st6{fill:#595959;}
	.st7{fill:#F8F8F8;}
	.st8{fill:#0E0E0E;}
	.st9{fill:#141414;}
	.st10{fill:#222222;}
	.st11{fill:#CFCFCF;}
	.st12{fill:#838383;}
	.st13{fill:#D0D0D0;}
	.st14{fill:#FCFCFC;}
	.st15{fill:#212121;}
	.st16{fill:#1D1D1D;}
	.st17{fill:#E0E0E0;}
	.st18{fill:#BEBEBE;}
	.st19{fill:#242424;}
	.st20{fill:#1E1E1E;}
	.st21{fill:#CACACA;}
	.st22{fill:#0F0F0F;}
	.st23{fill:#DBDBDB;}
	.st24{fill:#BDBDBD;}
	.st25{fill:#D9D9D9;}
	.st26{fill:#191919;}
	.st27{fill:#CDCDCD;}
	.st28{fill:#181818;}
	.st29{fill:#E9E9E9;}
	.st30{fill:#E7E7E7;}
	.st31{fill:#FDFDFD;}
	.st32{fill:#E8E8E8;}
	.st33{fill:#EDEDED;}
	.st34{fill:#EEEEEE;}
	.st35{fill:#3F3F3F;}
	.st36{fill:#020202;}
	.st37{fill:#C9C9C9;}
	.st38{fill:#DADADA;}
	.st39{fill:#1F1F1F;}
	.st40{fill:#262626;}
	.st41{fill:#525252;}
	.st42{fill:#2A2A2A;}
	.st43{fill:#373737;}
	.st44{fill:#ECECEC;}
	.st45{fill:#D7D7D7;}
	.st46{fill:#E1E1E1;}
	.st47{fill:#2B2B2B;}
	.st48{fill:#E5E5E5;}
	.st49{fill:#DEDEDE;}
	.st50{fill:#D1D1D1;}
	.st51{fill:#C2C2C2;}
	.st52{fill:#CECECE;}
	.st53{fill:#DDDDDD;}
	.st54{fill:#B0B0B0;}
	.st55{fill:#1C1C1C;}
	.st56{fill:#C5C5C5;}
	.st57{fill:#D2D2D2;}
	.st58{fill:#353535;}
	.st59{fill:#545454;}
	.st60{fill:#D8D8D8;}
	.st61{fill:#DCDCDC;}
	.st62{fill:#4C4C4C;}
	.st63{fill:#585858;}
	.st64{fill:#171717;}
	.st65{fill:#C3C3C3;}
</style>
<g>
	<g>
		<path class="st0" d="M468.8,427.8c-117.9,0-235.8,0-353.6,0.1c-2.8,0-3.5-0.6-3.5-3.4c0.1-18.9,0.1-37.7,0-56.6
			c0-2.6,0.5-3.1,3.1-3.1c118.2,0.1,236.5,0.1,354.7,0.1c9.9,0,19.8,0,29.6,0c1.6,0,1.9,0.3,1.9,1.9c-0.1,7.9,0,15.7,0,23.6
			c-1.9,0.5-1.9-1.4-2.8-2.2c-0.2-0.3-0.3-0.7-0.4-1c0-2.1-0.5-4-1.7-5.7c-0.8-1.3-1.9-2.2-3.2-3c-1.4-1.4-3-2.6-4.6-3.7
			c-0.9-0.7-1.9-1.2-3-1.6c-0.5-0.2-0.9-0.3-1.4-0.4c-2.1-0.8-4,0.3-6.1,0.2c-1.5,0.2-2.7,1-4.2,1.3c-1.7,0.1-3.4,0-5.2,0.1
			c-0.9-0.1-1.8,0.4-2.7,0c-1.1-0.8-1-1.7-0.4-2.8c0.5-0.8,0.5-1.6-0.5-2c0,0-0.3,0.1-0.3,0.1c-0.8,0.9,0.3,2-0.2,2.9
			c-0.2,0.5-0.5,0.8-0.9,1.2c-0.7,0.7-1.5,1.1-2.2,1.8c-0.3,0.4-0.5,0.7-0.7,1.1c-0.1,1,0.8,1.7,0.9,2.6c0.1,0.6,0.1,1.2,0.2,1.9
			c-0.1,1,0.7,1.7,0.8,2.6c0.1,0.3,0.1,0.6,0.2,0.9c0.2,0.6,0.4,1.2,0.6,1.8c0.4,0.6,0.5,1.3,0.5,2c0,1.2-0.7,1.9-1.7,2.5
			c-1.8,1.4-3.9,2.6-3.1,5.4c0.1,1.2,1.4,1.7,1.9,2.8c0.2,0.9-0.4,1.6-0.9,2.2c-0.1,0.3-0.3,0.5-0.4,0.8c-0.2,0.6-0.3,1.1-0.4,1.7
			c0,0.4,0.1,0.9,0.1,1.3c0,0.6-0.3,1.1-0.6,1.7c-0.1,0.4-0.3,0.7-0.3,1.1c0,0.3,0.1,0.5,0.1,0.8c0.2,0.4,0.4,0.7,0.6,1
			c0.3,0.5,0.4,1.1,0.9,1.6c3.5,3.5,3.5,3.8-0.3,5.9c-0.2,0.2-0.4,0.5-0.5,0.7c-0.3,0.4-0.5,0.7-0.6,1.2c-0.1,0.4-0.2,0.8-0.2,1.2
			c0,0.4,0.1,0.8,0.2,1.2c0.4,0.8,0.9,1.4,1.7,1.9c0.5,0.3,1,0.6,1.6,0.8c0.6,0.1,1.2,0.2,1.9,0.2c1.2-0.2,2.3,0.4,3.4,0.7
			c0.3,0.1,0.6,0.2,0.9,0.4C468.6,426.2,469.4,426.7,468.8,427.8z"/>
		<path class="st0" d="M501,395.5c0,10.1,0,20.3,0,30.4c0,1.6-0.3,1.9-1.9,1.9c-9.1-0.1-18.2,0-27.4,0c-0.2-0.3-0.4-0.6-0.4-0.9
			c0.2-1.1,1.2-1.7,1.8-2.5c1.3-1.8,3.5-2.5,4.9-4.2c0.2-0.6,0.4-1.3,0.5-1.9c0.1-0.6,0.2-1.3,0.1-1.9c0.2-2.1-1.2-3.8-1.7-5.7
			c0.5-1.6,0.9-3.3,0.1-4.9c-0.3-0.9,0.1-1.7,0.1-2.6c-0.1-1.1-0.3-2.1-0.5-3.2c-0.1-1.1-0.1-2.1-0.2-3.2c0-1.7-1.1-2.9-1.5-4.5
			c0.1-1.5,1.4-2.2,2.3-3.2c0.3-0.2,0.7-0.3,1.1-0.4c2.1-0.2,4.1,0.3,6.2,0.7c1.7,0.5,2.7,1.5,2.6,3.4c0,1.3,0,2.6,0.3,3.8
			c0.2,1,0.6,1.8,1.5,2.3c1.9,0.7,3.3-0.5,4.7-1.4c1.9-1.2,3.7-2.4,5.9-2.8C500.2,394.8,500.6,395.1,501,395.5z"/>
		<path class="st1" d="M501,395.5c-0.6,0.5-1.3,1-1.9,1.5c-0.2-0.4-0.4-0.8-0.6-1.2c-0.1-1.3-0.3-2.6,0.2-3.9
			c0.5-0.9,1.3-1.2,2.3-0.9C501,392.5,501,394,501,395.5z"/>
		<path class="st2" d="M471.9,427.2c0,0.2-0.1,0.4-0.2,0.6c-1,0-2,0-3,0c-0.5-0.5-1-1-1.5-1.5c1-1.3,2.3-1.2,3.6-0.7
			C471.5,425.9,471.8,426.5,471.9,427.2z"/>
		<path class="st3" d="M501,391c-0.5,0.2-0.9,0.5-1.4,0.7c-0.4-0.1-0.8-0.3-1.1-0.7c-0.9-1.6-1.6-3.2,1-4c0.9,0.9,0.2,2.5,1.4,3.2
			C501,390.5,501,390.8,501,391z"/>
		<path class="st4" d="M499.6,387.1c-1.3,1.3,0.5,2.7-0.2,4c-0.5,1.5-0.3,2.9-0.1,4.4c-0.1,0.5-0.1,1-0.2,1.5
			c-3,0.8-5.2,2.8-7.6,4.6c-2.1,1.6-3.7,1.4-4-1.7c-0.2-0.3-0.4-0.6-0.5-0.9c-0.2-3.2,1.1-6.5-1-9.5c-0.2-0.3-0.3-0.6-0.4-1
			c-0.1-1.2-0.1-2.4-0.1-3.6c-0.1-1.7-0.7-3.2-2.2-4.2c-0.3-0.2-0.5-0.5-0.6-0.8c-0.5-1-0.9-2-1.2-3c-0.3-1.7-3.1-3.7,0.6-4.9
			c2.2,0.3,3.4,2.1,5.2,3.2c1.2,1.6,1.8,3.5,2.9,5.2c0.8,2.6,1.7,5.2,1.8,7.5c-0.2-2.4-1-5.2-2.1-8c-0.4-1.1-1.6-2.1-1-3.5
			c1.2-1,2.3-0.5,3.2,0.4c1.1,1.1,2.4,2,3.7,2.9c0.6,0.4,0.8,1.2,1.3,1.6c1.5,1.3,0.9,3.6,2.4,4.8
			C499.4,386.6,499.5,386.8,499.6,387.1z"/>
		<path class="st5" d="M477.6,396.3c0.1,1.2,0.2,2.4,0.2,3.5c0.4,1-0.3,1.5-1,1.9c-0.5,0.5,0.2,0,0.2,0.2c0.7,0.1,1,0.6,1.2,1.2
			c0.1,1,0.1,2,0.2,3c-0.1,0.5-0.1,1-0.5,1.4c-0.8,0.5-1.8,0.8-2.5,1.4c-0.2,0.2-0.4,0.5-0.5,0.8c-0.3,0.6-0.4,1.2-0.5,1.9
			c-0.1,1-0.2,2-0.2,3c0,0.6,0,1.1,0,1.7c0,0.6-0.1,1.2-0.3,1.7c-1,1-1.7,2.6-3.6,1.5c-1.2-2.2-0.4-4.6-0.6-6.9
			c-0.2-2.3,0.1-4.7-0.9-6.9c-0.7-1.1-0.8-2.5-1.7-3.5c-0.3-0.1-0.7-0.2-1.1-0.1c-1.6,1-1.2,3.1-2.4,4.4c-0.2,0.3-0.4,0.6-0.7,0.8
			c-0.7,0.4-1.4,0.2-2.1-0.1c-1-0.5-2.1-0.7-2.8-1.7c-0.9-0.3-2.5,0.3-2.2-1.6c0.6-0.8,2,0.2,2.4-1.2c-0.3-1.3-1.9-0.3-2.3-1.2
			c-0.2-1.9,1.2-1.2,2.1-1.3c0.9,0,2,1.1,2.3-0.7c-1.1-1.5-4.7,1.8-4.3-2.3c2.3-1.9,3.8-4.6,6.1-6.5c0.5,0,1,0.2,1.3,0.6
			c0.5,1.2,0.9,2.5,2,3.3c0.8,0.6,1.6,1,2.5,1.2c0.6,0.1,1.3,0.1,1.9,0.1c0.6,0,1.2,0,1.9,0c0.5,0,0.9,0.1,1.3,0.2
			c1.1,0.2,2.1-0.6,3.2-0.6C476.9,395.6,477.3,395.9,477.6,396.3z"/>
		<path class="st6" d="M347.3,408.1c-2,0-3.5,0-5,0c1.9-2.6,1.8-11.6-0.3-14c2.2-0.1,4.4-1.1,3.9,2.7c-0.2,1.2-1,3.2,1.1,3.8
			c1.3,0.4,2.5,0,3.3-1.1c1-1.5,1.1-3-0.1-4.4c-0.2-0.3-0.5-0.5-0.8-0.8c1.9-0.5,3.2,0.2,4.1,1.8c0.9,1.5,0.6,2.9-0.7,4
			c-1.5,1.3-1.1,2.5,0.1,3.8c1.6,1.6,2.7,4,5.6,3.5c0.4-0.1,0.9-0.5,1.1-0.9c1.2-1.9,1.2-10.4-0.1-12.6c7.2-0.1,5.4,7.4,9,10.3
			c0.7-1.2,1.4-2.3,2.1-3.5c0,2.8-1.6,4.8-2.8,7.4c-2.7-3.1-3.5-7.1-5.9-10.4c0.4,3.5-2.7,7,0.8,10.6c-2.1,0-4.1-0.1-6.1,0
			c-2.7,0.2-5.2,0.4-6.2-3.1c-0.5-1.8-2.2-4.5-4.1-3.2C344.8,403.1,345.4,406.1,347.3,408.1z"/>
		<path class="st7" d="M281.4,394.7c0.7,0.5,1.5,1,2.2,1.5c2.5,3.6,2.5,6.2-0.1,9.6c0,0.3-0.1,0.6-0.1,0.9c-2.3,0.4-4.6,1.9-7.1,0.6
			c-1.5-3.6-1-7.4-0.5-11.1C276.3,392.9,279.3,394.7,281.4,394.7z"/>
		<path class="st6" d="M253.6,403.8c0,1.4-2,2.9,1.3,4.4c-2.4,0-3.9,0-5.4,0c-2.6,0.1-5.3,0.6-6.2-3.1c-0.5-1.8-2.2-4.5-4.1-3.2
			c-1.6,1.1-1.3,4.1,1,6.1c-2,0-3.5,0-5.1,0c1.8-2.5,1.7-11.6-0.5-14c1.9,0.4,4.4-1.5,4,2.4c-0.1,1.4-1.1,3.4,1.1,4.2
			c1.4,0.5,2.8,0,3.6-1.4c1-1.8,0.8-3.6-1.3-4.9c2.1-0.6,3.3,0.1,4.2,1.7c0.8,1.4,0.6,2.5-0.3,3.8c-1.7,2.3-0.4,5.3,2.9,7.1
			c3.3,1.8,2.8-1.6,3.8-2.8c0.3-0.4,0.6-0.8,0.9-1.2c0.2,0.2,0.3,0.4,0.2,0.6C253.7,403.7,253.6,403.8,253.6,403.8z"/>
		<path class="st0" d="M440.3,407.6c-0.3-0.3-0.6-0.6-0.9-0.9c-1.9-3.2-3.1-6.4,0.1-9.6c0.5-0.6,1-1.1,1.6-1.7
			c2-0.8,3.7-0.1,5.1,1.3c2.9,3.7,2.8,6.2-0.4,10.2C444.1,408.3,442.2,408,440.3,407.6z"/>
		<path class="st6" d="M431.6,407.8c-3.8-2.3-5.3-6.4-9.2-9.1c0,3.5-1.2,6.5,1.2,9.3c-1.1,0.5-2.2,0.3-3,0.2
			c-1.2-4.6,3.3-9.5-1.7-14.3c6.4,0.4,7.1,7.4,12.2,9.2c-0.3-3.1,1.6-6.4-1.9-8.9c1.3-0.3,2.7-0.3,4,0
			C430.6,398.4,432.9,403.1,431.6,407.8z"/>
		<path class="st6" d="M339.4,404.5c0.7,3-0.4,3.8-2.4,3.8c-4.1,0-8.2,0-12.5,0c2.9-1.9,3.8-16.5,1.4-20.8c3.4-1,4.6,0.4,4.2,3.7
			c-0.1,0.4-0.1,0.8,0,1.1c0.4,1.5-1.1,3.7,1.2,4.6c2.4,0.9,3.9-0.6,5.3-3.6c0,3.3,0,5.6,0,8.3c-0.6-1-0.8-1.9-1.4-2.3
			c-1.1-0.9-2.6-1.7-4-1.3c-1.7,0.4-1.1,2.1-1,3.2c0.2,2.1-1.3,5.1,1.3,6.1C334.1,408.2,337.2,408,339.4,404.5z"/>
		<path class="st8" d="M477.7,390.3c-0.1,1.4-1.9,1.1-2.2,2.3c-0.1,0.1-0.3,0.2-0.4,0.4c-0.5,0.2-1,0.3-1.5,0.3
			c-1.4-0.3-2.8-0.4-3.3,1.5c-0.4,0.5-0.8,0.8-1.4,0.9c-2.4,0-3.4-1.8-4.4-3.4c-0.3-1.2,0.6-1.9,1.3-2.7c0.2-0.3,0.4-0.7,0.4-1.1
			c-0.1-0.2-0.1-0.5-0.2-0.7c-0.3-0.6-0.9-0.7-1.4-0.8c-1.3-0.1-2.1-1.1-3-1.9c-0.1-0.2-0.1-0.5,0-0.7c0.3-1.3,1.2-1.6,2-1.5
			c-1,0.1-2.1-0.4-3-1.4c-0.9-0.6-1.2-1.1,0-1.6c0.2,0,0.3-0.1,0.5-0.1c1.5-0.5,3.3,0.2,4.6-1.2c0.2-0.3,0.4-0.5,0.7-0.7
			c0.6-0.4,1.2-0.9,1.9-1c1,0,1.9,0.5,2.6,1.1c0.4,0.6,0.5,1.4,0.9,2c0.1,2.4,0.9,4.5,2.4,6.3C475,387.8,477.4,388.1,477.7,390.3z"
			/>
		<path class="st6" d="M187.4,394.1c3-1,4.1,1.1,5.3,3.4c1.1,2.2,1.4,4.7,3.3,6.7c0.8-1.3,1.5-2.4,2.6-4.3c-0.3,3.5-2.1,5.5-3.2,8.1
			c-2.8-3.2-3.6-7.2-6-10.4c0.5,3.5-2.5,7,0.6,10.4c-1.1,0-2.3,0-3.5,0C187.6,403.5,189.3,398.9,187.4,394.1z"/>
		<path class="st6" d="M130.8,403.1c0.6,5.1-2,5.4-5.6,5.2c-3.3-0.2-6.7-0.1-10.5-0.1c3.8-2.1,4.3-18.6,0.9-20.8
			c2.4-0.5,4.9,0.3,7.3-0.8c-2.1,1.4-2.2,3.4-2.1,5.5c0.1,3.5-0.1,7,0.1,10.5c0.1,1.6-1.1,3.9,1.1,4.6c2.4,0.8,4.9,0.1,7-1.6
			C129.6,405.1,130,404.2,130.8,403.1z"/>
		<path class="st6" d="M161.9,386.6c-2,1.3-2.3,3-2.2,5.1c0.2,3.6-0.1,7.2,0.1,10.9c0.1,1.6-1.1,4,1,4.7c2.5,0.9,5.2,0.2,7.2-1.7
			c0.6-0.6,1-1.4,1.6-2.1c0.8,4.2-1.2,5.2-4.9,4.9c-3.5-0.3-7-0.1-10.7-0.1c3.6-2.1,4-18.6,0.6-20.7
			C157.1,386.8,159.6,387.9,161.9,386.6z"/>
		<path class="st9" d="M458.2,416.6c-0.7-0.4-1.5-0.7-2.7-1.3c2.3-1.1,4.2,0.6,6.2-0.1c-0.7-1.8-2.2-1.5-3.4-1.7
			c-1.1-0.2-1.1-0.2-1.5-1.7c1.7-0.5,3.6-0.2,5-1.6c0.4-0.1,0.8-0.1,1.1,0c0.4,0.2,0.6,0.5,0.8,0.9c0.4,2.9,0.3,5.9,1,8.8
			c-0.1,2.2,0.5,4.5-1.2,6.3c-0.8,0-1.8,0.4-2.3-0.7c-0.1-0.7-0.4-1.2-0.9-1.6c-1.4-0.7-2.8-1.5-4.1-2.3c0-0.4,0-0.9,0-1.3
			c-0.6-0.8,2.7,0,0.6-1.5c-1.7-2.7,1-1.1,1.5-1.5c0.3-0.1,0.4-0.3,0.3-0.6C458.5,416.7,458.4,416.6,458.2,416.6z"/>
		<path class="st6" d="M213.1,408.2c-1.3,0-2.6,0-3.9,0c1.4-4.7,1.1-9.4,0.1-14.2c2.1,0,4.6-0.1,7,0c2,0.1,3.8,1.4,3.9,3.4
			c0.1,1.9-1,3.7-3.9,3.9c0.5-1.9,1.7-3.5,0.4-5.4c-0.9-1.2-2-1.4-3.2-1.2c-1.5,0.2-1.3,1.4-1.2,2.3
			C212.8,400.7,211.5,404.5,213.1,408.2z"/>
		<path class="st6" d="M301.3,406.8c-3.4,2.4-7.4,0.9-11.2,1.5c1.4-4.8,0.9-9.4,0.5-14.1c6.7-1,9.4-0.5,10,2.2
			c-1.4-0.4-2-1.9-3.7-1.9c-2.8,0-2.9,1.4-2.9,3.5c-0.1,2.6,1.2,2.9,3.2,2.5c0.4-0.1,0.9-1.3,1.2,0c0.1,0.5,0.1,1-0.1,1.5
			c-0.3,0.7-0.7,0.2-1.2,0c-1.4-0.6-3-1.4-3.1,1.2c0,1.9-1,4.5,2.7,4.3C298.4,407.4,300,407.6,301.3,406.8z"/>
		<path class="st6" d="M389.5,395.7c-0.2-1.4-0.5-3.1,1.5-2.6c3.9,1,8.8-2,12.2,2.9c-1.7,0.7-1.9-0.5-2.6-0.8
			c-2.2-0.9-3.9-0.9-3.8,2.3c0.1,2.6,0.1,5.2,0,7.8c-0.1,1.6,0.7,2.2,2,2.8c-1.8,0-3.5,0-5,0c1.6-4,1.1-8.3,0.5-12.4
			C393.8,393.5,391.2,395.2,389.5,395.7z"/>
		<path class="st10" d="M376,408c-0.6,0-2,0-3,0c1.2-3.5,0.8-7.2,0.3-10.8c-0.2-1.5,0-2.4,1.2-3c0.4-0.2,1.3-0.1,1.7,0.1
			c0.6,0.4-0.2,0.8-0.3,1.2C375.4,399.7,375.4,403.9,376,408z"/>
		<path class="st6" d="M303.7,394.1c2,0,3.5,0,4.7,0c0,4.3-0.4,8.5,0.2,12.6c0.2,1.5,3.1,1,4.7,0.4c0.8-0.3,1.4-1.2,2.3-1.4
			c-2.8,4.5-7.6,1.5-11.5,2.8C305.8,405.4,305.6,396.5,303.7,394.1z"/>
		<path class="st6" d="M225,397.7c-0.5-1.2-0.2-2.6,0.9-2.9c1.6-0.5,1.1,1.2,1.4,2c1.8,3.7,2,8.1,4.7,11.4c-4.6,2.1-3.9-2.1-4.9-4.3
			c-0.3-0.4-0.6-0.7-1-0.9C224.3,401.4,225.9,399.3,225,397.7z"/>
		<path class="st6" d="M137.3,397.7c-0.5-1.2-0.2-2.6,0.9-2.9c1.6-0.5,1.1,1.2,1.4,2c1.8,3.7,2,8.1,4.7,11.4
			c-4.6,2.1-3.9-2.1-4.9-4.3c-0.3-0.4-0.6-0.7-1-0.9C136.5,401.4,138.1,399.3,137.3,397.7z"/>
		<path class="st6" d="M176.3,397.7c-0.5-1.2-0.2-2.6,0.9-2.9c1.6-0.5,1.1,1.2,1.4,2c1.8,3.7,2,8.1,4.6,11.4c-4.5,2-3.8-2.2-4.8-4.4
			c-0.3-0.4-0.6-0.7-1-0.9C175.5,401.4,177.1,399.3,176.3,397.7z"/>
		<path class="st6" d="M255.8,397.7c-0.5-1.2-0.2-2.6,0.9-2.9c1.6-0.5,1.1,1.2,1.4,2c1.8,3.7,2,8.1,4.7,11.4
			c-4.6,2.1-3.9-2.1-4.9-4.3c-0.3-0.4-0.6-0.7-1-0.9C255,401.4,256.6,399.3,255.8,397.7z"/>
		<path class="st6" d="M409.5,397.7c-0.5-1.2-0.2-2.6,0.9-2.9c1.6-0.5,1.1,1.2,1.4,2c1.8,3.7,2,8.1,4.7,11.4
			c-4.6,2.1-3.9-2.1-4.9-4.3c-0.3-0.4-0.6-0.7-1-0.9C408.8,401.4,410.4,399.3,409.5,397.7z"/>
		<path class="st6" d="M381.1,394.1c2.1,0,3.7,0,5.3,0c-1.5,4.7-0.9,9.4-0.4,14.1c-1,0-2.8,0-4.5,0
			C383.1,405.6,382.9,396.6,381.1,394.1z"/>
		<path class="st4" d="M461.9,391c-0.2,1.1-0.4,2.2-0.6,3.3c-0.5,3.3-2.2,4.3-5.3,2.9c-0.2-3.7,2.2-5.5,5.1-6.9
			C461.6,390.2,461.9,390.5,461.9,391z"/>
		<path class="st6" d="M204.2,408.2c-1.3,0-2.8,0-4.3,0c2-3.6,1.1-7.3,0.7-10.9c-0.1-1.3,0-2.2,0.8-2.9c0.4-0.4,1.5-0.4,2.1-0.2
			c1.4,0.5-0.1,1.1-0.1,1.6C203.4,399.8,202.5,404,204.2,408.2z"/>
		<path class="st11" d="M460.5,381.4c2.5,0.3,5,0.4,7.4,0.8c0.8,0.1,1.7,0.8,1.5,1.8c-0.3,1.1-1.2,0.4-1.9,0.4c-2,0-4-0.1-6-0.1
			C460.4,383.6,460.6,382.4,460.5,381.4z"/>
		<path class="st6" d="M445.4,406.7c1.4-3.2,2.5-6.4,0.2-9.7c0.1-0.4,0.3-0.6,0.6-0.8c4.6,2.4,4.6,7.6,0,11.2
			C445.9,407.3,445.6,407.1,445.4,406.7z"/>
		<path class="st12" d="M276.9,407.4c2.3,0.5,4.3-1,6.6-0.6c-3.4,2.2-7.2,1.2-11,1.5c3-3.2,2.8-11.6-0.1-14.1
			c0.9-0.6,1.9-0.3,2.9-0.2c0.3,0.3,0.5,0.6,0.6,1c0.3,3.8-0.1,7.7,0.3,11.5C276.3,406.9,276.5,407.2,276.9,407.4z"/>
		<path class="st13" d="M463.4,426.2c0-2.1,0-4.2,0.1-6.3c-0.9-3.1,0.1-6.3-0.6-9.4l-0.2,0.1c-0.8-0.5-1-1.3-0.9-2.2
			c0.1-0.7,0.3-1.2,0.9-1.6c0.1-0.2,0.2-0.5,0.3-0.7c0.4-0.3,0.8-0.4,1.2-0.3c2.2,0.9,1.9,3,1.9,4.8c0.1,4.9-0.1,9.9,1.2,14.7
			c-0.2,0.4-0.4,0.8-0.7,1.1C465.5,426.6,464.5,425.5,463.4,426.2z"/>
		<path class="st6" d="M283.5,405.9c0.9-3.2,0.8-6.4,0.1-9.6c3.6,0.2,3.3,3.4,3.4,5.5C287.1,403.3,286.7,406.2,283.5,405.9z"/>
		<path class="st6" d="M439.5,397.1c-1.5,3.2,0.1,6.4-0.1,9.6c-3.3-1.7-4.1-8-1.3-10C438.4,396.6,439,397,439.5,397.1z"/>
		<path class="st14" d="M465.5,366.3c3.3,2.4,1,4.9,0.2,7.4c0.3,0.3,0.3,0.7,0,1c-0.5,0.3-1.1,0.4-1.6,0.1c-0.9-0.7-0.6-1.7-0.6-2.6
			c-0.9-1.9-2.3-3.7-0.6-5.9c0.3,0.2,0.5,0.6,0.9,0.7c0.3,0,0.5,0,0.7-0.1C464.9,366.8,465.2,366.5,465.5,366.3z"/>
		<path class="st15" d="M489.6,380.7c-1-1.6-2-3.2-3-4.8c-1.2-1.2-3.1-1.9-3.2-4.1c0.3-0.5,0.7-0.8,1.3-0.5c0.4,0.1,0.9,0.1,1.3,0.2
			c0.5,1,1.8,1.2,2.5,2.1c0.3,1,1.4,1.9,0.6,3.1c0.5,1,0.9,2,1.4,3C490.3,380.2,490.2,380.7,489.6,380.7z"/>
		<path class="st16" d="M470.2,378.3c-0.7-0.2-1.5-0.5-2.2-0.7c-0.9,0-1.7-0.2-2-1.2c0-0.5,0.2-1,0.5-1.4c0.5-0.6,1.1-1.2,1.6-1.9
			c1.9,0,3.8-0.1,5.8-0.1c1.1-0.3,2.1-0.9,3.2,0c0.4,1.9-1.3,2.2-2.4,2.7c-1.1,0.5-2.4,0.6-3.2,1.7
			C471.1,377.8,470.8,378.2,470.2,378.3z"/>
		<path class="st17" d="M489.1,376.7c-0.8-1.1-1.6-2.2-2.4-3.3c0.7-0.2,1.4-0.1,2.1,0.2c1.8,1.1,3.9,1.9,4.8,3.9
			c0.9,0.8,2.5,1.1,2.1,2.9C493,379.9,492,376.7,489.1,376.7z"/>
		<path class="st12" d="M275.2,394.4l0-0.4c2,0.3,4.2-0.6,6.1,0.7c-3.5-0.5-5.1,0.8-4.6,4.6c0.4,2.7,0.1,5.4,0.1,8.1
			c-0.2,0-0.5,0.1-0.7,0.1c-1.2-2.9-0.2-5.9-0.5-8.8C275.5,397.3,275.9,395.8,275.2,394.4z"/>
		<path class="st18" d="M465,385.6c0.9,0.6,3.1-1.2,2.8,1.6c-0.3,1.5-1.4,1.9-2.7,1.9c-0.9,0-1.6-0.4-2.1-1c-0.3-0.5-0.6-1-0.9-1.6
			C462.5,384.5,463.9,385.6,465,385.6z"/>
		<path class="st6" d="M177.5,392.7c0.6-1.9,1.7-3.4,3-4.8c0.6-0.6,1.2-0.8,1.9-0.1c0.6,0.7,0,1.1-0.4,1.5c-1.1,1.4-2.2,2.9-3.4,4.3
			C178.2,393.4,177.9,393.1,177.5,392.7z"/>
		<path class="st6" d="M430.9,389.3c-2,2.6-2,2.6-8.6,0.1C425.3,387.3,428.1,392.5,430.9,389.3z"/>
		<path class="st19" d="M463.5,372.2c0.9,0.5,0.6,1.5,0.9,2.3c0.6,0.7,1,1.4,0.9,2.3c-0.1,0.9-0.6,1.6-1.4,2
			c-0.4,0.1-0.8,0.2-1.3,0.1c-1.7-0.8-2.8-1.9-2-4c0.5-0.9,1.8-0.9,2.2-1.9C463,372.7,463.2,372.5,463.5,372.2z"/>
		<path class="st20" d="M462.9,388c0.7,0,1.4,0.1,2.1,0.1c0.4,0.2,0.8,0.3,1.2,0.5c0.6,0.5,1,1,1,1.8c-0.8,0.3-1.5,0.7-2.3,1
			c-0.5,1-1.3,0.9-2.2,0.5c-0.3-0.3-0.6-0.6-0.9-1c-0.3-0.3-0.5-0.5-0.8-0.8C461.7,389.5,463,389.3,462.9,388z"/>
		<path class="st19" d="M462.5,408.2c0,0.8,0.1,1.5,0.1,2.3c-0.3,0.3-0.6,0.6-0.9,1c-1.3,0.2-2.6,0.1-3.6-0.9
			c-0.9-0.4-2.2-0.1-2.2-1.6c1.4-1.4,3.3-1.1,5-1.6C461.6,407.5,462.1,407.8,462.5,408.2z"/>
		<path class="st0" d="M176.3,397.7c0.7,1.8,1.4,3.5,2.2,5.3c-1.8,0.2-4.5,2-3.8-2.2C175.6,399.9,176,398.9,176.3,397.7z"/>
		<path class="st0" d="M225,397.7c0.7,1.8,1.4,3.5,2.2,5.3c-1.8,0.2-4.5,2-3.8-2.2C224.3,399.9,224.8,398.9,225,397.7z"/>
		<path class="st0" d="M255.8,397.7c0.7,1.8,1.4,3.5,2.2,5.3c-1.8,0.2-4.5,1.9-3.8-2.2C255.1,399.9,255.5,398.9,255.8,397.7z"/>
		<path class="st0" d="M409.5,397.7c0.7,1.8,1.4,3.5,2.2,5.3c-1.8,0.2-4.5,2-3.8-2.2C408.8,399.9,409.3,398.9,409.5,397.7z"/>
		<path class="st21" d="M461.3,374.5c-0.1,1.5,1.2,2.4,1.5,3.7c0.5,1.3-0.6,1.4-1.3,1.7c-0.4,0.1-0.7,0.1-1-0.2l0.1,0
			c-0.4-1-1.6-1.6-1.5-2.9c-0.3-0.3-0.3-0.6-0.2-1C459.3,374.8,460,374.1,461.3,374.5z"/>
		<path class="st0" d="M137.3,397.7c0.7,1.8,1.4,3.5,2.2,5.3c-1.8,0.2-4.5,2-3.8-2.2C136.6,399.9,137,398.9,137.3,397.7z"/>
		<path class="st22" d="M462.5,408.2c-0.5,0-0.9,0-1.4,0.1c-1.9,0.6-3.6,0.6-5.1-0.8c-0.3-1.6,0.9-0.8,1.5-0.9
			c1.1-0.4,2.3-0.7,3.5-0.6c0.5,0.3,1,0.5,1.6,0.8C462.6,407.2,462.6,407.7,462.5,408.2z"/>
		<path class="st23" d="M456,401.4c1.7,0.6,4.8-0.4,4.7,1.8c-0.1,1.7-3.1-0.2-4.8,0.6C457,403,457.3,402.2,456,401.4z"/>
		<path class="st24" d="M456.7,418.9c1.6,0.1,3.3,0.2,5.1,1.4c-2.2,1.4-4,0.1-5.7,0.1C456.3,419.8,456.5,419.4,456.7,418.9z"/>
		<path class="st6" d="M338.2,389.8c-1.8-2-3.7-2.6-6.1-2.8C337.2,386.1,337.4,386.2,338.2,389.8z"/>
		<path class="st25" d="M456.1,421.6c1.8,0.5,3.7,0.3,5.3,1.6c-0.1,1-0.7,1.5-1.7,1.7C457.9,424.4,456.7,423.4,456.1,421.6z"/>
		<path class="st6" d="M407.3,403.8c0.2,1.4-2.4,3,0.8,4c-1.3,0.7-2.3,0.4-3.7,0.3c1-1.8,1.9-3.5,2.9-5.2c0.2,0.2,0.3,0.4,0.2,0.6
			C407.4,403.7,407.4,403.8,407.3,403.8z"/>
		<path class="st6" d="M222.8,403.8c-0.1,1.4-1.9,3,0.6,4.1c-1.1,0.6-2.2,0.3-3.5,0.2c1-1.8,1.9-3.5,2.9-5.2
			c0.2,0.2,0.3,0.4,0.2,0.6C222.9,403.7,222.9,403.8,222.8,403.8z"/>
		<path class="st6" d="M174.1,403.8c0.2,1.4-2.4,3,0.8,4c-1.3,0.7-2.3,0.4-3.7,0.3c1-1.8,1.9-3.5,2.9-5.2c0.2,0.2,0.3,0.4,0.2,0.6
			C174.2,403.7,174.1,403.8,174.1,403.8z"/>
		<path class="st6" d="M135.1,403.8c0.2,1.4-2.4,3,1.6,4.2c-2.1,0.1-3.2,0.2-4.6,0.2c1.1-2,2-3.7,3-5.3c0.2,0.2,0.3,0.4,0.2,0.6
			C135.2,403.7,135.1,403.8,135.1,403.8z"/>
		<path class="st26" d="M499.4,386.3c-2.1-0.8-1.6-3.2-2.8-4.5c-0.6-0.8-0.5-1.3,0.6-1.3C498.9,382.1,498.9,384.3,499.4,386.3z"/>
		<path class="st27" d="M458.2,410.6c1.3,0,2.6-0.1,3.6,0.9c-1.5,2.7-3.4-0.1-5.1,0.3C457.2,411.4,457.7,411,458.2,410.6z"/>
		<path class="st28" d="M477,373.7c-1.1-0.2-2.1-0.5-3.2-0.7c1.1-1,2.4-1.5,3.9-1.5c0.5-0.4,0.9-0.1,1.4,0.2c0.7,0.9,0.9,1.9,0.8,3
			c-1.2,1.5-2.1,1-2.8-0.5C477,374,477,373.8,477,373.7z"/>
		<path class="st11" d="M465.5,366.3c0,0.8,0,1.6,0,2.4c-0.8,0.4-1.5,0.4-2.2-0.2c-0.2-0.7-0.3-1.5-0.5-2.2
			C463.8,365.9,464.7,365.9,465.5,366.3z"/>
		<path class="st29" d="M466.5,426.3c0-0.3,0-0.5,0-0.8c0.8-1.3,1.5-2.6,2.1-3.9c0.6-1.3,1.5-2.4,3.1-0.9c0.5,1.9,1.1,3.9-0.8,5.5
			c-1.2,0-2.4,0.1-3.6,0.1C467,426.3,466.8,426.3,466.5,426.3z"/>
		<path class="st15" d="M478.5,372.1c-0.3-0.2-0.5-0.4-0.8-0.6c2.3-1.2,4.6-1.2,7-0.1c-0.3,0.3-0.7,0.6-1,0.9
			c-0.4,0.4-0.9,0.3-1.4,0.2C481.1,371.7,479.6,373.5,478.5,372.1z"/>
		<path class="st12" d="M254.2,400.8c0,2.8,2.2,2.1,3.8,2.2c0.7,0.3,0.7,0.5,0,0.8c-1.5,0-2.9,0.1-4.4,0.1c0-0.3,0-0.6-0.1-0.9
			C253.6,402.2,253.4,401.3,254.2,400.8z"/>
		<path class="st12" d="M407.3,403.8c0-0.3,0-0.6-0.1-0.9c0.1-0.8-0.1-1.6,0.7-2.2c0,2.8,2.2,2.1,3.8,2.2c0.7,0.3,0.7,0.5,0,0.8
			C410.2,403.8,408.8,403.8,407.3,403.8z"/>
		<path class="st12" d="M135.1,403.8c0-0.3,0-0.6-0.1-0.9c0.1-0.8-0.1-1.6,0.7-2.2c0,2.8,2.2,2.1,3.8,2.2c0.7,0.3,0.7,0.5,0,0.8
			C138,403.8,136.5,403.8,135.1,403.8z"/>
		<path class="st12" d="M222.8,403.8c0-0.3,0-0.6-0.1-0.9c0.1-0.8-0.1-1.6,0.7-2.2c0,2.8,2.2,2.1,3.8,2.2c0.7,0.3,0.7,0.5,0,0.8
			C225.7,403.8,224.3,403.8,222.8,403.8z"/>
		<path class="st12" d="M174.1,403.8c0-0.3,0-0.6-0.1-0.9c0.1-0.8-0.1-1.6,0.7-2.2c0,2.8,2.2,2.1,3.8,2.2c0.7,0.3,0.7,0.5,0,0.8
			C177,403.8,175.5,403.8,174.1,403.8z"/>
		<path class="st19" d="M497.2,380.5c-0.2,0.4-0.4,0.8-0.6,1.3c-0.3-0.4-0.6-0.9-0.9-1.3c-0.7-1-1.4-1.9-2.1-2.9
			C495.6,377.5,496.3,379.2,497.2,380.5z"/>
		<path class="st30" d="M468.1,373c0.6,1,0.5,1.8-0.7,2.3c-1,0.5-1.7,0.6-1.6-0.9c0-0.2,0-0.5,0-0.7
			C466.5,373.5,467.3,373.3,468.1,373z"/>
		<path class="st12" d="M445.4,406.7c0.3,0.2,0.5,0.4,0.8,0.6c-2,1.1-3.9,1.4-6,0.2C442,407.4,443.9,407.8,445.4,406.7z"/>
		<path class="st31" d="M456,407.4c1.6,0.8,3.4,0.9,5.1,0.8c-1.5,1.8-3.5-0.1-5.2,0.7C456,408.5,456,408,456,407.4z"/>
		<path class="st12" d="M446.3,396.2c-0.2,0.3-0.4,0.5-0.6,0.8c-1.2-1.3-2.9-1.5-4.6-1.6C443,394,444.7,394.9,446.3,396.2z"/>
		<path class="st32" d="M461.1,405.9c-1.1,0.9-2.3,0.6-3.5,0.6c0.2-0.4,0.5-0.8,0.7-1.2C459.2,405.3,460.2,405.1,461.1,405.9z"/>
		<path class="st33" d="M461.3,374.5c-0.7,0.5-1.4,1-2.2,1.5c-1-0.9-0.3-1.5,0.4-2.1c1.1-0.3,2.1-0.6,3.2-0.8
			C463,374.2,462.3,374.6,461.3,374.5z"/>
		<path class="st23" d="M459.7,424.9c0.6-0.6,1.1-1.1,1.7-1.7c1.1,0.9,1.2,1.6-0.2,2.3C460.6,425.3,460.1,425.1,459.7,424.9z"/>
		<path class="st34" d="M458.2,416.6c1.2-0.1,2.4,0,3.4,1.1c-1.3,0.6-2.4,0.3-3.4-0.3C458.2,417.1,458.2,416.9,458.2,416.6z"/>
		<path class="st35" d="M488.7,373.6c-0.7-0.1-1.4-0.1-2-0.2c-0.8-0.4-0.5-1.2-0.7-1.9C487.2,371.8,488.4,372.2,488.7,373.6z"/>
		<path class="st36" d="M465,385.6c-1,0.4-2.2-0.3-3,0.9c-0.9-0.2-0.7-0.8-0.6-1.4C462.6,385.2,463.8,385.4,465,385.6z"/>
		<path class="st37" d="M460.4,399.4c0.6,0.2,0.7,0.8,0.3,1c-0.9,0.6-1.8,0.1-2.6-0.3C458.9,399.9,459.7,399.6,460.4,399.4z"/>
		<path class="st10" d="M459.5,373.9c-0.1,0.7-0.3,1.4-0.4,2.1c0,0.3-0.1,0.6-0.1,0.9C458.2,375.7,457,374.4,459.5,373.9z"/>
		<path class="st4" d="M470.2,378.3c0.1-0.5,0.2-1.1,0.2-1.6c0-1.7,0.5-2.8,2.6-2.6c1.2,0.2,2.5,0,3.7,0.1c1.9,1.5,4.4,2.4,5.9,4.4
			c0.4,0.6,0.6,1.3,1.3,1.7c1.4,0.9,1.8,2.3,1.7,3.9c0.4,2.8-0.5,4.9-3.4,5.8c-1.2,0.8-2.4,1.3-3.8,0.3c-0.3,0-0.5,0-0.8,0
			c-2.1,0.1-3.7-1-5.3-2.2c-1.9-2.2-0.7-5.2-2-7.5C470.4,379.8,470.3,379,470.2,378.3z"/>
		<path class="st38" d="M479.2,421.1c-1.7,1.5-3.5,2.9-5.2,4.4c-3.6,0.1-1.9-2.3-1.8-3.9c1.2-1.5,3-2.2,4.5-3.2c1-0.5,2-0.7,2.8,0.3
			C479.9,419.6,479.8,420.4,479.2,421.1z"/>
		<path class="st3" d="M473.3,421.9c-0.6,1.4-1.9,2.9,0.7,3.7c-0.7,0.6-1.4,1.1-2,1.7c-0.3-0.3-0.7-0.7-1-1c0-2,0-3.9,0-5.9
			c-0.1-0.3-0.1-0.6,0.3-0.8c0.7-0.8,1.4-1.6,2.2-2.3c0.5-0.5,1.1-0.9,1.9-0.9c0.6,0.1,1,0.4,1.3,0.8c0.1,0.3,0.2,0.7,0.1,1
			c-0.1,0.3-0.4,0.6-0.6,0.8c-0.9,0.5-1.6,1.2-2.1,2.1C473.7,421.3,473.5,421.6,473.3,421.9z"/>
		<path class="st16" d="M484.5,384.2c0-1.5-0.7-2.7-1.5-3.9c-0.1-0.7,0.2-1,0.9-0.7c0.2,0,0.4,0.1,0.5,0.1c1.8,1.1,1.7,3.1,2.2,4.7
			c0.1,1.3,0.2,2.7,0.2,4c0.4,1.7,1.6,3.5-0.9,4.7c0.3-1.9-1.4-2-2.4-2.9c-0.2-0.3-0.3-0.6-0.2-0.9C486,388.2,484.4,386,484.5,384.2
			z"/>
		<path class="st39" d="M473.4,415.9c0-0.6-0.1-1.1-0.1-1.7c0.2-0.2,0.4-0.4,0.6-0.7c0.4-0.8,0.9-1.6,1.5-2.3c0.3-0.4,0.6-0.7,1-1
			c0.3-0.1,0.6-0.2,0.9-0.1c0.1,0.1,0.3,0.2,0.4,0.3c2.4,1.4,2.2,3.7,2.2,6c-0.2,0.2-0.5,0.4-0.8,0.4c-0.8-0.1-1.3-0.7-2.1-0.7
			C475.8,415.8,474.5,416.9,473.4,415.9z"/>
		<path class="st40" d="M472.5,397.7c-0.2-0.2-0.5-0.5-0.7-0.7c-0.3-0.3-0.4-0.6-0.4-0.9c0.5-2.2,2.7-2.5,4.2-3.6c0,0,0,0.1,0,0.1
			c2.6,0.2,2.1,2.1,2.1,3.7c-0.4,0-0.8,0-1.2,0C474.7,395.8,474.2,398.3,472.5,397.7z"/>
		<path class="st36" d="M479.3,416.4c0.2,0,0.4,0.1,0.6,0.1c0,0.7,0.1,1.5,0.1,2.2c-0.3,0.3-0.6,0.3-0.8,0c-0.7,0.3-1.4,0.5-2.1,0.8
			c-1.3,0.1-1.3-0.6-0.8-1.5l0,0C476.8,416.5,477.5,415.4,479.3,416.4z"/>
		<path class="st41" d="M486.1,393.2c1.1-1.4,0.5-3.1,0.9-4.7c0.2,0.1,0.3,0.2,0.5,0.4c0.9,1.5,0.3,3.2,0.4,4.8
			c-0.8,1.2,0.6,3.4-1.7,4.1C486.1,396.2,486.1,394.7,486.1,393.2z"/>
		<path class="st3" d="M477.8,406.7c0.3-0.3,0.5-0.5,0.8-0.8c0.2,1.6,2.1,3.5-0.9,4.5c0,0,0.1,0.1,0.1,0.1
			C476.6,409.3,476.6,408,477.8,406.7z"/>
		<path class="st42" d="M486.2,397.8c0.4-1.2,0.8-2.5,1.2-3.7c1,1.7,0.5,3.4,0.3,5.2c-0.1,0.2-0.2,0.5-0.1,0.7
			C485.9,399.9,485.9,398.9,486.2,397.8z"/>
		<path class="st19" d="M483.8,389.6c0,0.2,0,0.5,0,0.7c-1.7-0.4-3.5,3-5.2-0.1c1.3,0,2.6,0,3.8-0.8
			C482.8,389,483.3,389.1,483.8,389.6z"/>
		<path class="st20" d="M478.4,403c-0.4-0.2-0.9-0.5-1.3-0.7c-0.5-0.1-0.8-0.4-0.8-1c0.5-0.5,1.1-1,1.6-1.5
			C478.5,400.8,478.5,401.9,478.4,403z"/>
		<path class="st43" d="M479.2,418.8c0.3,0,0.6,0,0.8,0c0.9,1.2,0.4,1.9-0.8,2.4C479.2,420.3,479.2,419.6,479.2,418.8z"/>
		<path class="st44" d="M499.3,395.5c-0.7-1.5-0.7-3,0.1-4.4c0.1,0.2,0.2,0.4,0.2,0.7C499.5,393,499.4,394.2,499.3,395.5z"/>
		<path class="st9" d="M489.6,380.7c0.3-0.3,0.5-0.6,0.8-0.9c1.3,3,2.3,6.1,1.5,9.5C491.2,386.4,490.4,383.6,489.6,380.7z"/>
		<path class="st45" d="M478.5,372.1c1.3-0.2,2.6-1.3,3.8,0.2c0.3,0.2,0.4,0.3,0.3,0.5c-0.1,0.2-0.2,0.3-0.3,0.3
			c-1.7,1.6,1.1,2.4,0.7,3.8c-1.3,0.8-2.2-0.3-3.2-0.8c-0.3-0.4-0.3-0.9-0.5-1.4C479.5,373.5,477.1,373.5,478.5,372.1z"/>
		<path class="st46" d="M487.6,399.2c-0.1-1.7-0.2-3.4-0.3-5.2c0-1.7,0-3.4,0.1-5.1c0-0.1,0-0.2,0.1-0.4c0.1-0.3,0.6-0.7,0.6-0.3
			C488.2,391.9,488.8,395.6,487.6,399.2z"/>
		<path class="st47" d="M480.1,375.4c1.3-0.3,1.8,1.2,2.9,1.4c0.3,1,0.7,1.9,1,2.9c-0.3,0.2-0.6,0.5-0.9,0.7c-0.3-0.4-0.7-0.9-1-1.3
			C481.3,377.8,478.9,377.6,480.1,375.4z"/>
		<path class="st48" d="M482.3,373c0-0.3,0-0.5,0-0.8c0.5,0,1,0.1,1.5,0.1c1,1.2,1.9,2.4,2.9,3.6C484.7,375.6,483.8,373.8,482.3,373
			z"/>
		<path class="st49" d="M486.7,384.5c-0.7-1.6-1.5-3.2-2.2-4.7C487.1,380.5,486.5,382.7,486.7,384.5z"/>
		<path class="st4" d="M471.1,419.5c-0.1,0.3-0.2,0.5-0.3,0.8c-1,2.2-0.1,5.8-4.4,5.2c-2-1.7-2.2-3.9-2.3-6.3
			c-0.2-4.4,0.8-8.8-0.7-13.2c-0.6-0.8-0.4-1.7-0.4-2.5c-0.1-3.8,0.4-4.2,4.1-4.2c1.9,0,2.7,0.8,2.6,2.7c-0.1,3.3,0,6.7,0,10
			c0,0.6,0,1.2,0,1.8c0-0.5,0-0.9,0-1.4c0.3-2.7-0.6-5.5,0.5-8.1C471.2,409.3,470.7,414.4,471.1,419.5z"/>
		<path class="st11" d="M462.9,392c0.7-0.2,1.4-0.3,2.2-0.5c2,0.3,2.6,2.1,3.7,3.3c1,0.4,2.3,0.7,1.6,2.3c-0.6,0-1.2,0-1.9,0
			c-1.9,0.4-3.9,0.6-5.8-0.1C462.7,395.3,462.8,393.6,462.9,392z"/>
		<path class="st49" d="M469.5,413.5c0-3.2,0-6.5,0-9.7c0-2.1-0.3-3.7-3-3.7c-2.6,0-3,1.6-3,3.7c0,0.7,0,1.5,0,2.2
			c-0.2,0-0.4,0-0.6,0c-0.1-1.3-0.2-2.7-0.3-4c-0.3-2.3,0.7-3.2,3-2.8c1.6-0.4,3.2-0.5,4.7,0.1c0.1,1.7,0.1,3.3,0.2,5
			c-0.1,3.1-0.1,6.2-0.2,9.3C470,414,469.7,414,469.5,413.5z"/>
		<path class="st50" d="M477.8,406.7c0,1.3,0,2.5,0,3.8c-0.3,0.1-0.5,0.1-0.8,0.2c-1.2,0.2-2.2,2.1-3.7,0.5c0.2-0.8,0.5-1.5,0.7-2.3
			c-0.4-1,0.2-1.6,0.8-2.1C475.8,406.8,476.8,406.8,477.8,406.7z"/>
		<path class="st51" d="M473.4,415.9c1.3-0.9,2.6-1.9,3.9-2.7c1.4-0.9,1.4,0.1,1.3,1c-0.3,1.8-1.9,2.2-3.1,2.9c-0.7,0-1.4,0-2.1,0
			C473.3,416.8,473.3,416.3,473.4,415.9z"/>
		<path class="st10" d="M473.3,411.2c1.3,0.6,2.2-2.4,3.7-0.5c-0.2,0.4-0.4,0.8-0.6,1.3c-1.2,0.3-1.7,1.2-2.2,2.2
			c-0.3,0-0.6,0.1-0.9,0.1C473.4,413.3,471.1,412.2,473.3,411.2z"/>
		<path class="st52" d="M472.5,397.7c0.9-0.8,1.8-1.6,2.8-2.3c1.4-1,1.3,0,1.2,0.9c-1,0.9-2,1.8-3,2.7c-0.4,0.3-0.9,1.1-1.4,0.4
			C471.8,399,472.3,398.2,472.5,397.7z"/>
		<path class="st53" d="M476.2,401.3c0.3,0.3,0.6,0.6,0.8,1c-1.5,1.2-3,2.5-4.5,3.7C473,403.7,474.9,402.8,476.2,401.3z"/>
		<path class="st54" d="M474.8,406.8c-0.3,0.7-0.6,1.4-0.8,2.1c-0.7,0.3-1.9,0.4-1.8-0.2C472.3,407.5,473.2,406.5,474.8,406.8z"/>
		<path class="st55" d="M470.3,397.1c-0.5-0.8-1-1.5-1.6-2.3c0.3-0.3,0.5-0.5,0.8-0.8c0.5-0.4,1-0.2,1.5,0.1
			c0.7,0.6,0.9,1.5,0.8,2.4c0,0.2,0,0.4,0,0.5C471.3,397,470.8,397.1,470.3,397.1z"/>
		<path class="st56" d="M462.6,397c1.9,0,3.9,0,5.8,0.1C466.5,397.7,464.6,398.4,462.6,397z"/>
		<path class="st57" d="M474,401.2c0.3-1.6,1.2-1.9,2-2.5C476.3,400.3,475.3,400.5,474,401.2z"/>
		<path class="st49" d="M470.2,399.2c-1.6,0-3.1,0-4.7-0.1C467,398.7,468.6,398,470.2,399.2z"/>
		<path class="st10" d="M344.8,396.5c0,3.1,0,6.3,0,9.4c-0.1,0-0.3,0-0.4,0c0-3.1,0-6.3,0-9.4C344.6,396.5,344.7,396.5,344.8,396.5z
			"/>
		<path class="st10" d="M353.1,397.8c-0.3,0.2-0.6,0.4-0.9,0.5c-0.1-0.3-0.3-0.7-0.3-1c0-0.3,0.1-0.8,0.6-0.6
			C352.7,396.9,352.8,397.3,353.1,397.8z"/>
		<path class="st10" d="M237.5,396.7c0,3.1,0,6.1,0,9.2c-0.1,0-0.2,0-0.3,0c0-3.2,0-6.3,0-9.5C237.3,396.5,237.4,396.6,237.5,396.7z
			"/>
		<path class="st10" d="M245.3,396.7c0.1,0.3,0.4,0.6,0.3,0.9c0,0.2-0.4,0.4-0.6,0.7c-0.1-0.3-0.3-0.6-0.4-1
			C244.6,397,244.7,396.6,245.3,396.7z"/>
		<path class="st10" d="M328,406.3c0-5.7,0-11.5,0-17.2c0.3,0,0.5,0,0.8,0c0,5.8,0,11.5,0,17.3C328.5,406.4,328.3,406.4,328,406.3z"
			/>
		<path class="st37" d="M471.7,396.5c-0.5-0.6-0.9-1.2-1.4-1.8c0.1-0.7-0.3-1.2-0.7-1.6c-0.6-0.7-0.5-1.3,0.1-1.9
			c0.7-0.7,1.4-0.8,2.3-0.2c0.5,0.5,1,1.1,1.9,0.9c0.5,0.2,1.1,0.4,1.6,0.6C474.9,394.4,473.5,395.6,471.7,396.5z"/>
		<path class="st17" d="M474,391.9c-2.2-0.3-4.5-0.9-3.6,2.8c-0.3-0.2-0.6-0.5-0.9-0.7c-0.8-1.3-2-2.4,0.1-3.8
			C472.2,388.4,472.5,391.3,474,391.9z"/>
		<path class="st23" d="M470.4,380.5c2,2.2,1.3,5,2,7.5C468.8,386.3,471.2,383,470.4,380.5z"/>
		<path class="st58" d="M463.5,378.2c0.3-0.5,0.5-0.9,0.8-1.4c0.6-0.6,1.3-1.2,2.2-0.7c0.5,0.5,1,1,1.5,1.5
			c-0.2,0.4-0.5,0.9-0.7,1.3C465.7,380.3,464.5,379.8,463.5,378.2z"/>
		<path class="st48" d="M463.5,378.2c1.2,0.3,2.4,1,3.8,0.7c0.5,0.5,1.5,0.7,1.1,1.8c0,0.1-0.8-0.1-1.2-0.2c-1.9-0.8-4,0.4-5.8-0.8
			c0.5-0.5,0.9-0.9,1.4-1.4C463,378.3,463.3,378.3,463.5,378.2z"/>
		<path class="st53" d="M467.3,390.5c-0.8-0.1-1.8,0.4-2.2-0.7c-0.1-0.2,0.6-0.6,0.9-0.9c1-1.1,2-1.8,3.5-0.8
			C468.7,388.9,468,389.7,467.3,390.5z"/>
		<path class="st4" d="M461.4,379.6c2,0.2,4-0.2,5.8,0.8c-2.3-0.1-4.6,0.5-6.8-0.6C460.8,379.7,461.1,379.7,461.4,379.6z"/>
		<path class="st55" d="M469.5,388.1c-1.4-0.6-2.3,0.8-3.5,0.8c-0.3-0.2-0.6-0.5-1-0.7c0.9-0.3,1.8-0.7,2.7-1
			C468.3,387.5,468.9,387.8,469.5,388.1z"/>
		<path class="st10" d="M118.9,406.4c0-5.8,0-11.5,0-17.3c0.3,0,0.5,0,0.8,0c0,5.8,0,11.5,0,17.3
			C119.4,406.4,119.1,406.4,118.9,406.4z"/>
		<path class="st10" d="M158.7,389.1c0,5.8,0,11.5,0,17.3c-0.2,0-0.5,0-0.7,0c0-5.8,0-11.5,0-17.3
			C158.2,389.1,158.4,389.1,158.7,389.1z"/>
		<path class="st4" d="M462.9,410.5c1.1,3.1,0.4,6.3,0.6,9.4C462.7,416.8,462.9,413.6,462.9,410.5z"/>
		<path class="st10" d="M211.3,396.4c0,3.1,0,6.3,0,9.4C210.6,402.7,210.7,399.5,211.3,396.4z"/>
		<path class="st10" d="M292.5,406.4c-1.1-3.5-0.7-7-0.1-10.5C293.5,399.3,293.3,402.9,292.5,406.4z"/>
		<path class="st10" d="M395.4,405.9c0-3.4,0-6.8,0-10.2c0.1,0,0.2,0,0.3,0c0,3.4,0,6.8,0,10.2C395.7,405.9,395.5,405.9,395.4,405.9
			z"/>
		<path class="st10" d="M306.3,396.4c1.5,3.2,1.3,6.6,0.5,10C305.4,403.2,306.2,399.8,306.3,396.4z"/>
		<path class="st10" d="M384.2,406.4c-1.3-3.5-0.9-7,0-10.5C384.2,399.4,384.2,402.9,384.2,406.4z"/>
		<path class="st10" d="M202.3,396.3c0,3.1,0,6.3,0,9.4c-0.1,0-0.2,0-0.3,0c0-3.1,0-6.3,0-9.4C202.1,396.4,202.2,396.4,202.3,396.3z
			"/>
		<path class="st10" d="M448.3,400.5c0.1,0.5,0.2,0.8,0.2,1.2c0,0.3,0,0.9-0.5,0.5c-0.2-0.2-0.1-0.7-0.1-1.1
			C447.8,400.9,448.1,400.8,448.3,400.5z"/>
		<path class="st10" d="M275.2,394.4c1.9,4.3,0.5,8.8,0.9,13.2C274,403.3,275.5,398.8,275.2,394.4z"/>
		<path class="st10" d="M285.6,399.9c0.4,1,1.1,1.8-0.2,2.7C284.9,401.6,284.5,400.7,285.6,399.9z"/>
		<path class="st10" d="M438.1,401.6c-0.2,0.3-0.4,0.5-0.6,0.8c-0.1-0.2-0.2-0.5-0.2-0.7c0-0.3,0.2-0.7,0.3-1
			C437.7,400.9,437.9,401.2,438.1,401.6z"/>
		<path class="st59" d="M463.4,368.5c0.8-0.6,1.5-0.3,2.2,0.2c0.2,0.9-0.2,1.6-1,1.7C463.1,370.5,463.7,369.2,463.4,368.5z"/>
		<path class="st11" d="M466.5,376c-0.8,0.2-1.3,1.2-2.2,0.7c0-0.8,0.1-1.5,0.1-2.3c0.5,0,0.9,0,1.4-0.1c0.5,0.3,1.1,0.6,1.6,0.9
			C467,375.5,466.8,375.8,466.5,376z"/>
		<path class="st0" d="M477,374.4c-2.4,0.2-5.1-0.8-6.5,2.2c-1.3-1.6-0.9-2.7,1.1-3c1.8-0.2,3.7,0,5.5,0l-0.1,0.2
			c0.3,0.1,0.4,0.2,0.3,0.3C477.1,374.4,477.1,374.4,477,374.4z"/>
		<path class="st38" d="M477,374.4c0-0.2,0-0.4,0-0.5c1-0.4,1.2,1.9,2.4,0.6c0.2,0.3,0.5,0.6,0.7,0.9c-0.2,1.7,1.7,2.2,2,3.6
			C479.7,378.2,478.4,376.3,477,374.4z"/>
		<path class="st60" d="M483.8,389.6c-0.5-0.1-1-0.1-1.5-0.2c1.5-1.4,2-3.2,2.3-5.2C484.2,386,488.2,388.4,483.8,389.6z"/>
		<path class="st28" d="M473.9,380.6c-0.7-0.9-1.5-1.8-2.3-2.8c1.9-0.9,3.5,0.6,5.3,0.6c0.7,1-0.1,1.5-0.7,2
			c-0.4,0.2-0.9,0.3-1.4,0.4C474.5,380.8,474.2,380.8,473.9,380.6z"/>
		<path class="st61" d="M475.1,380.4c0.1-0.3,0.3-0.6,0.4-0.8c1-0.3,2-0.6,3-0.1c-0.2,0.6-0.5,1.1-0.7,1.7
			C476.5,382.1,475.8,381.1,475.1,380.4z"/>
		<path class="st62" d="M475.1,380.4c0.9,0.3,1.8,0.6,2.6,0.8c-1.6,1.8-2.6-0.1-3.8-0.7C474.3,380.5,474.7,380.5,475.1,380.4z"/>
		<path class="st63" d="M478.4,379.5c-1,0-2,0-3,0.1c0.5-0.4,1-0.8,1.5-1.3C477.8,378.2,478.2,378.7,478.4,379.5z"/>
		<path class="st9" d="M476.3,418c0.3,0.5,0.5,1,0.8,1.5c-1.2,0.9-2.1,2.3-3.8,2.3c0-0.3,0-0.7,0-1c0.6-1,1.6-1.6,2-2.7
			C475.6,418.1,475.9,418.1,476.3,418z"/>
		<path class="st64" d="M475.4,417.2c0.5-1.6,2-2.1,3.1-2.9c0.2,0.7,0.5,1.4,0.7,2.1c-1,0.5-2,1.1-3,1.6
			C476,417.7,475.7,417.5,475.4,417.2z"/>
		<path class="st11" d="M475.3,418.1c0.7,1.9-1.1,1.9-2,2.7C472.8,419.1,474.5,419,475.3,418.1z"/>
		<path class="st65" d="M474.2,414.2c-0.1-1.6,0.6-2.4,2.2-2.2C475.7,412.7,474.9,413.4,474.2,414.2z"/>
		<path class="st49" d="M469.5,413.5c0.2,0,0.5,0,0.7,0c0,0.7,0,1.4,0,2.4C469.2,415.1,469.7,414.2,469.5,413.5z"/>
	</g>
</g>
</svg>
