<?xml version="1.0" encoding="utf-8"?>
<!-- Generator: Adobe Illustrator 19.0.0, SVG Export Plug-In . SVG Version: 6.00 Build 0)  -->
<svg version="1.1" id="Layer_1" xmlns="http://www.w3.org/2000/svg" xmlns:xlink="http://www.w3.org/1999/xlink" x="0px" y="0px"
	 viewBox="0 0 612 792" style="enable-background:new 0 0 612 792;" xml:space="preserve">
<style type="text/css">
	.st0{fill:#FEFEFE;}
	.st1{fill:#CCCCCC;}
	.st2{fill:#040404;}
	.st3{fill:#303030;}
	.st4{fill:#0C0C0C;}
	.st5{fill:#595959;}
	.st6{fill:#F8F8F8;}
	.st7{fill:#0E0E0E;}
	.st8{fill:#141414;}
	.st9{fill:#222222;}
	.st10{fill:#FCFCFC;}
	.st11{fill:#D0D0D0;}
	.st12{fill:#1D1D1D;}
	.st13{fill:#CFCFCF;}
	.st14{fill:#838383;}
	.st15{fill:#212121;}
	.st16{fill:#242424;}
	.st17{fill:#E0E0E0;}
	.st18{fill:#BEBEBE;}
	.st19{fill:#1E1E1E;}
	.st20{fill:#CACACA;}
	.st21{fill:#D7D7D7;}
	.st22{fill:#DBDBDB;}
	.st23{fill:#BDBDBD;}
	.st24{fill:#0F0F0F;}
	.st25{fill:#4B4B4B;}
	.st26{fill:#DADADA;}
	.st27{fill:#1A1A1A;}
	.st28{fill:#1F1F1F;}
	.st29{fill:#E1E1E1;}
	.st30{fill:#262626;}
	.st31{fill:#D1D1D1;}
	.st32{fill:#020202;}
	.st33{fill:#161616;}
	.st34{fill:#2B2B2B;}
	.st35{fill:#DEDEDE;}
	.st36{fill:#C2C2C2;}
	.st37{fill:#646464;}
	.st38{fill:#C9C9C9;}
	.st39{fill:#E5E5E5;}
	.st40{fill:#353535;}
	.st41{fill:#CDCDCD;}
	.st42{fill:#393939;}
	.st43{fill:#292929;}
	.st44{fill:#5D5D5D;}
	.st45{fill:#585858;}
	.st46{fill:#8D8D8D;}
	.st47{fill:#DDDDDD;}
	.st48{fill:#373737;}
</style>
<g>
	<g>
		<path class="st0" d="M479,407.3c-118.1,0-236.3,0-354.4,0.1c-2.8,0-3.5-0.6-3.5-3.4c0.1-18.9,0.1-37.7,0-56.6
			c0-2.6,0.5-3.1,3.1-3.1c118.2,0.1,236.5,0.1,354.7,0.1c9.9,0,19.8,0,29.6,0c1.6,0,1.9,0.3,1.9,1.9c-0.1,7.9,0,15.7,0,23.6
			c-2.1,0.7-2.7-0.9-3.3-2.4c-0.8-1.9-1.3-3.9-2.6-5.6c-0.8-4-3.8-6-7.2-7.5c-1.7-0.5-2.8-2.6-4.9-2.1c-2-0.2-3.8,0.2-5.7,0.8
			c-3.5,1-7.3,0.5-10.7,2c-0.5-0.2-1-0.5-1.4-0.9c-1-1.2-0.1-2.6-0.4-4c0,0.8,0.1,1.3-0.1,1.9c-0.1,0.5-0.1,1.1-0.3,1.6
			c-0.3,0.7-0.9,1.1-1.5,1.5c-0.3,0.2-0.5,0.4-0.8,0.6c-1.4,0.9-0.9,2.1-0.6,3.3c0.1,0.6,0.1,1.3,0.2,1.9c-0.1,1,0.8,1.7,0.9,2.7
			c0.1,0.7,0.3,1.3,0.5,2c0.2,0.9,0.7,1.6,0.7,2.6c0.2,1.3-0.7,2-1.6,2.6c-2.3,1.4-3.7,3.4-4.2,6c-0.8,1.4,0.4,2.4,0.7,3.6
			c0.2,1.1,0.6,2.2,0.5,3.4c0.2,0.9,0.4,1.9,0.1,2.9c-0.2,0.6-0.5,1.1-0.6,1.7c-0.1,1,0.9,1.5,1.1,2.4c0.3,0.4-0.2-0.1,0.1,0.3
			c2.9,3.8,2.9,3.8-0.9,7.1c-0.2,0.2-0.3,0.4-0.4,0.6c-0.2,0.6-0.3,1.2-0.1,1.8c0.8,2.3,3.3,2.5,4.9,3.7c1.2,0.1,2.4,0.3,3.7,0.2
			c1.3,0.2,2.1,0.8,2.5,2.1C479.3,406.5,479.2,406.9,479,407.3z"/>
		<path class="st0" d="M510.5,375.8c0,9.9,0,19.8,0,29.6c0,1.6-0.3,1.9-1.9,1.9c-9.6-0.1-19.2,0-28.9,0c-0.3-0.2-0.4-0.5-0.3-0.9
			c0.7-1.3,2.2-1.5,3.1-2.5c1.2-2.5,4.8-2.8,5.6-5.7c0.1-0.7,0.1-1.3,0.1-2c0.1-1.9-0.9-3.5-1.9-4.9c-0.1-0.3-0.2-0.7-0.2-1
			c0-0.9,0-1.7,0-2.6c0-0.5,0-1.1,0-1.6c-0.3-3.3-1.4-6.6-0.4-9.9c0.6-1.8-1.1-3-1.2-4.6c0.3-1.3,1.5-1.7,2.4-2.5
			c2.2-0.2,4.2-1.9,6.6-0.9c2.2,1.1,3.3,3,3.7,5.3c0.2,1.4,0,2.9,1.1,4.1c1.6,2,3,0.7,4.6-0.1c2.1-1.1,3.8-3.3,6.6-2.8
			C510,374.8,510.2,375.3,510.5,375.8z"/>
		<path class="st1" d="M509.5,375c-2.9,2.8-6.6,4.6-10,6.7c-2.3,1.4-2.4-1.7-3.3-3c1.4-3.3,1.1-6.5-0.8-9.6
			c-0.3-3.4-0.5-6.9-3.1-9.6c-0.5-1-1.3-1.8-1.6-2.9c-1.3-4.5-1.3-4.5,2-4.9c2.8,0,3.5,2.5,4.8,4.2c0.9,1.1,1.4,2.6,2.1,3.9
			c0.5,1.4,0.9,2.8,1.3,4.1c-0.5-1.5-0.8-3-1.5-4.4c-0.4-1.1-1.6-2.1-1-3.5c1.5-1.1,2.5-0.2,3.5,0.7c1.4,1.2,2.4,2.8,4.2,3.5
			c2.4,2.8,2.4,6.6,4.4,9.5c0,1.3,0,2.5,0,3.8C509.9,373.8,510.5,374.9,509.5,375z"/>
		<path class="st2" d="M509.5,375c0.3-0.5,0.2-1.3,1-1.5c0,0.8,0,1.5,0,2.3C510.2,375.5,509.9,375.3,509.5,375z"/>
		<path class="st3" d="M480,406.7c0,0.2-0.1,0.4-0.3,0.6c-0.3,0-0.5,0-0.8,0c-0.1-0.3-0.1-0.5-0.2-0.8c0.1-0.1,0.3-0.2,0.4-0.2
			C479.6,406.2,479.8,406.4,480,406.7z"/>
		<path class="st4" d="M487.1,375.8c-0.4,3.5,1.5,7,0.1,10.5c-0.1,0.2-0.3,0.4-0.5,0.5c0,0-0.3,0.1-0.3,0.1s-0.3,0-0.3,0
			s-0.3-0.1-0.3-0.1c0,0-0.2-0.2-0.2-0.2c0,0-0.1-0.3-0.1-0.3c0,0,0-0.3,0-0.3c0,0,0,0.3,0,0.3s0,0.3,0,0.3c0,0.2,0,0.5,0,0.7
			c0,0.2-0.1,0.5-0.2,0.7c-0.1,0.2-0.2,0.5-0.3,0.7c-0.1,0.2-0.2,0.5-0.3,0.7c-0.2,0.5-0.4,1-0.5,1.5c0,0.3,0,0.6,0,0.9
			c0,0.6,0.2,1.2,0.1,1.9c-0.2,0.7-0.2,1.4-0.2,2.2c0,0.6-0.1,1.2-0.2,1.8c-0.8,1.5-1.9,2.5-3.8,1.6c-1.6-2-1.4-4.3-1-6.6
			c0.4-2.4,0.7-4.9-0.6-7.2c-0.2-0.4,0,0.1-0.2-0.3c-0.7-1.1-0.4-3.1-2.1-3.2c-1.8,0-1.3,2.2-2.2,3.1c-0.2,0.3-0.4,0.6-0.6,1
			c-0.2,0.4-0.4,0.7-0.7,0.9c-1.7,0.4-3.5,1.2-5-0.7c0.8-2.1-3-0.8-2.1-2.9c0.6-0.8,2,0.2,2.4-1.2c-0.3-1.3-1.9-0.3-2.3-1.2
			c0-1.4,0-2.8,0-4.3c2.3-1.9,3.8-4.6,6.1-6.5c0.6,0,1,0.2,1.4,0.6c1,4.1,4,4.9,7.7,4.6C482.8,376.2,485.1,373.1,487.1,375.8z"/>
		<path class="st1" d="M479.9,383.7c0.8,5.1,0.3,10.2,0.7,15.2c1.9,3.4,1.4,5.8-1.5,7.6l-0.3-0.1c-0.9-0.2-1.9-0.5-2.8-0.7
			c-2.5-1.4-3.6-3.5-3.4-6.5c0.2-4.5-0.1-9,0.2-13.5c-0.3-1.2,0-2.5-0.2-3.7c-0.4-2.6,0.8-3,3.1-3.1c3-0.1,4.1,0.8,3.7,3.7
			c-0.2,1.2,0,2.5,0,3.7C479.6,385.6,478.9,384.5,479.9,383.7z"/>
		<path class="st5" d="M380.9,380.6c-1.2,2.3-2.3,4.5-3.6,7c-2.7-3.2-3.5-7.2-5.9-10.4c0.6,3.5-2.9,7.1,0.9,10.6
			c-2.3,0-4.3-0.1-6.3,0c-2.7,0.1-5.1,0.3-6.2-3.2c-0.5-1.8-2.2-4.4-4.1-3.1c-1.4,1-1.1,4.1,1.1,6.1c-1.9,0-3.4,0-4.9,0
			c1.7-2.1,1-4.7,0.9-7c-0.1-2.3,1.2-4.9-1.1-6.9c1.3,0.5,3.8-1.8,3.6,2c-0.1,1.5-1.1,3.6,1.2,4.5c1.2,0.4,2.5,0,3.3-1.2
			c1.2-1.9,0.9-3.7-1.1-5.2c2.2-0.5,3.4,0.3,4.3,1.9c0.8,1.6,0.5,2.9-0.8,4c-1.8,1.6-0.7,2.8,0.5,4.1c1.5,1.6,2.7,3.7,5.4,3.1
			c0.3-0.1,0.7-0.4,0.9-0.7c1.3-1.6,1.3-10.5-0.1-12.7c7.2-0.2,5.7,7,8.9,10.1C379.3,382.9,379.1,381,380.9,380.6z"/>
		<path class="st5" d="M263.7,383.2c-0.6,1.4-2.8,2.6,0.6,4.5c-2.3,0-3.8,0-5.2,0c-2.5,0-5.3,0.8-6.2-3c-0.4-1.8-2.2-4.5-4-3.3
			c-1.7,1.1-1.1,4,0.6,6c-1.6,0.7-3.1,0.1-4.8,0.4c1.9-2.7,1.7-11.7-0.3-14.1c1.8,0.2,4.2-1.7,3.9,2.2c-0.1,1.4-1,3.4,1,4.3
			c1.3,0.5,2.8,0.1,3.6-1.3c1.1-1.9,0.8-3.6-1.1-5c1.9-0.6,3.1,0.1,4.1,1.6c0.9,1.5,0.8,2.8-0.5,4c-1,0.9-1.7,2-0.6,3.2
			c1.6,1.7,2.6,4.1,5.3,4.2c1,0,1.3-0.9,1.6-1.8c0.4-1.1,0.4-2.6,2.2-2.5c0.2,0.2,0.3,0.3,0.2,0.4
			C263.8,383.2,263.7,383.2,263.7,383.2z"/>
		<path class="st6" d="M290.9,374.2c0.7,0.5,1.5,1,2.2,1.5c2.8,3.9,2.8,6-0.1,9.6c0,0.3-0.1,0.6-0.1,0.9c-2.3,0.4-4.6,1.9-7.1,0.6
			c-1.5-3.6-1-7.4-0.5-11.1C285.8,372.4,288.8,374.2,290.9,374.2z"/>
		<path class="st0" d="M449,376.6c1.8-1.8,3.9-1.8,6.1-0.8c3.6,3.7,3.6,6,0,11.2c-2.2,1.2-4.2,0.3-6.2-0.8
			C446.5,381.9,446.5,379.6,449,376.6z"/>
		<path class="st7" d="M487.1,370.4c-0.6,0.6-1.8,0.5-2.1,1.6c-0.1,0.1-0.3,0.2-0.4,0.4c-0.5,0.2-1,0.3-1.6,0.3
			c-1.7-0.4-2.9,0-3.2,1.9c-0.2,0.3-0.5,0.6-0.8,0.8c-2.9,0.4-3.8-1.9-5.3-3.6c-0.6-1.6,1.2-2.4,1.2-3.8c0-2.5-3-1-3.6-2.7
			c-0.6-0.3-0.6-0.9-0.5-1.5c0.4-1.7,1.6-1.5,2.8-1.5c-1.5,0.1-2.8-0.3-3.8-1.5c-0.9-0.6-1-1.2,0-1.8c0.3-0.4,0.6-0.8,1.1-0.9
			c1.7-0.2,3.6,0.2,5.1-1c0.5-0.3,0.9-0.5,1.5-0.5c0.4,0,0.7,0,1.1,0.1c0.7,0.3,1.4,0.7,1.9,1.2c0.4,0.4,0.7,0.9,0.8,1.4
			c-0.4,2.5,0.7,4.5,2.3,6.3C484.5,367.6,487.8,367.6,487.1,370.4z"/>
		<path class="st5" d="M433.2,387.6c-1.2,0-2.3,0-3.6,0c1.3-2.3,0.1-4.8,1-7.1c1-2.7,0.6-4.9-2.1-6.7c3.6-0.9,4.7,1.7,6.3,3.6
			c1.6,1.9,3.4,3.6,5.9,6.2c-0.4-4.1,1.5-7.4-2-9.9c1.3-0.3,2.7-0.3,4,0c-2.6,4.2-0.4,8.9-1.6,13.5c-3.8-2.1-5.2-6.3-9-8.9
			C431.8,381.7,430.9,384.7,433.2,387.6z"/>
		<path class="st8" d="M466.2,398.4c-0.5-0.3-0.8-1.1-0.6-1.2c4.1-0.8-0.6-1.7,0.3-2.9c1.4-0.7,3.1,1,5.1,0.4
			c-1-2.8-3.9-0.8-5.3-2.6c0.1-1.2,1.9-0.3,2.1-1.4c1.7-1.1,3.4-3,5.1,0c0.1,4.1,0.1,8.2,0.7,12.2c0.1,1,0.1,2-0.7,2.8
			c-3-1.3-5.7-2.9-7.3-5.9C465,399,468.3,399.9,466.2,398.4z"/>
		<path class="st5" d="M335.2,367c3.5-0.9,4.8,0.4,4.3,3.5c-0.1,0.5-0.1,1,0,1.5c0.4,1.5-1.1,3.7,1.4,4.4c2.3,0.6,3.8-0.5,5-2.6
			c0,2.2,0,4.4,0,6.9c-0.4-0.7-0.7-1.4-1.2-1.9c-1.2-1.1-2.7-1.9-4.3-1.3c-1.5,0.5-0.6,2.2-0.9,3.3c0,0.1,0,0.3,0,0.4
			c0.4,1.9-1.2,4.8,1.5,5.6c2.6,0.7,5.8,1.1,7.6-2.5c0.5,3.1,0.4,3.4-2,3.5c-4.2,0.1-8.5,0-13,0C336.9,385.9,337.8,371.4,335.2,367z
			"/>
		<path class="st5" d="M196.9,373.3c6.9,0,5.1,7.4,8.7,10.3c0.7-1.2,1.4-2.3,2.1-3.5c0,2.8-1.6,4.8-2.8,7.4
			c-2.7-3.1-3.6-7.1-5.8-10.4c0.4,3.4-3.1,6.9,0.7,10.3c-1.2,0.5-2.5,0.3-3.8,0.2C197.2,383,198.6,378.5,196.9,373.3z"/>
		<path class="st5" d="M179.3,383c0.4,4.1-1.6,5.2-5.4,4.8c-3.3-0.3-6.7-0.1-10.3-0.1c3.5-2.2,3.9-18.6,0.5-20.7
			c2.5-0.6,5,0.3,7.4-0.9c-2.4,1.2-2.3,3.2-2.2,5.3c0.1,3.5-0.1,7,0.1,10.5c0.1,1.7-1.2,4.2,1.2,4.9c2.5,0.7,5.2,0.1,7.2-2
			C178.3,384.3,178.3,383.1,179.3,383z"/>
		<path class="st5" d="M125.1,366.9c2.4-0.4,4.9,0.3,7.2-0.8c-2.1,1.4-2.2,3.4-2.2,5.5c0.1,3.5-0.1,7,0.1,10.5
			c0.1,1.6-1.1,3.9,1,4.7c2.4,0.8,4.9,0.1,7-1.5c0.7-0.6,1.2-1.5,1.9-2.4c-0.3,4.9-0.3,4.9-4.9,4.9c-3.5,0-7,0-10.7,0
			C128.1,385.6,128.5,369,125.1,366.9z"/>
		<path class="st5" d="M225.7,381.2c0.5-1.4,1.1-2.2,1.1-2.9c0-1.9-0.4-3.7-2.8-4c-2.7-0.3-2.5,1.8-2.2,3.2c0.7,3.3-1.2,6.9,1,10.2
			c-1.4,0-2.9,0-4.4,0c1.6-2.3,1.5-11.4-0.3-14.1c2.6,0,5.1-0.1,7.5,0c2,0.1,3.8,1.2,4,3.2C229.9,378.9,228.6,380.4,225.7,381.2z"/>
		<path class="st5" d="M299.8,387.6c1.2-4.6,1-9.3,0.2-13.9c8.7-0.8,9.7-0.5,10,2.2c-1.3,0.2-1.2-1.8-2.6-1.6
			c-1.2,0.2-2.8-0.6-3.5,0.6c-0.8,1.4-0.7,3.3,0,4.7c0.5,1.1,2.1,0.9,3,0.4c1.2-0.7,1.2-0.1,1.1,0.7c0,0.5,0.3,1.6-0.8,1.1
			c-1.2-0.5-2.7-1.7-3.4,0c-0.6,1.4-0.9,3.4,0.3,4.6c1.2,1.2,3.1,0.5,4.7,0.4c0.7-0.1,1.4-0.8,2.1-1.2
			C310.1,388.1,309.2,388.2,299.8,387.6z"/>
		<path class="st5" d="M407.9,387.7c-1.6,0-3.2,0-4.8,0c1.7-4,0.8-8.2,0.6-12.3c-0.1-1.8-2.1-1.1-3.3-0.8c-0.7,0.2-1.5,1.5-1.6-0.4
			c-0.1-1,0.3-1.8,1.4-1.7c3.2,0.4,6.4,0.3,9.6,0.1c2.4-0.2,1.2,2.2,2.5,3.2c-1.5,0.3-1.8-0.9-2.5-1.1c-1.9-0.6-3.7-1-3.6,2.1
			c0.1,2.6,0,5.2,0,7.8C406.2,386,406.2,387.5,407.9,387.7z"/>
		<path class="st9" d="M385.4,387.5c-0.5,0-1.9,0-3,0c1.4-3.5,0.8-7.2,0.4-10.8c-0.2-1.5,0-2.4,1.1-3c0.4-0.2,1.3-0.1,1.7,0.1
			c0.6,0.4-0.2,0.8-0.3,1.2C384.9,379.3,385,383.4,385.4,387.5z"/>
		<path class="st5" d="M324.9,384.7c-2.6,5.4-7.5,1.7-11.5,3.4c1.9-3.2,1.8-12.1,0-14.3c1.6-0.4,3.2-0.3,4.5-0.1
			c0,4.3-0.4,8.5,0.2,12.6c0.2,1.5,3.1,0.9,4.7,0.4C323.6,386.3,324.2,385.4,324.9,384.7z"/>
		<path class="st5" d="M265.3,377.2c-0.5-1.2-0.2-2.6,0.9-2.9c1.6-0.5,1.1,1.2,1.4,1.9c1.8,3.7,1.9,8.1,4.7,11.4
			c-0.2,0-0.6,0.1-0.9,0.2c-2,0.1-4.1,0.5-3.3-2.8c0.2-0.7-0.5-1.6-0.8-2.4C264.4,381.6,266.1,378.9,265.3,377.2z"/>
		<path class="st5" d="M234.5,377.2c-0.5-1.2-0.2-2.6,0.9-2.9c1.6-0.5,1.1,1.2,1.4,1.9c1.8,3.7,1.9,8.1,4.7,11.4
			c-0.2,0-0.6,0.1-0.9,0.2c-2,0.1-4.1,0.5-3.3-2.8c0.2-0.7-0.5-1.6-0.8-2.4C233.6,381.6,235.4,378.9,234.5,377.2z"/>
		<path class="st5" d="M146.8,377.2c-0.5-1.2-0.2-2.6,0.9-2.9c1.6-0.5,1.1,1.2,1.4,1.9c1.8,3.7,1.9,8.1,4.7,11.4
			c-0.2,0-0.6,0.1-0.9,0.2c-2,0.1-4.1,0.5-3.3-2.8c0.2-0.7-0.5-1.6-0.8-2.4C145.9,381.6,147.6,378.9,146.8,377.2z"/>
		<path class="st5" d="M419,377.2c-0.5-1.2-0.2-2.6,0.9-2.9c1.6-0.5,1.1,1.2,1.4,1.9c1.8,3.7,2,8.1,4.6,11.4c-0.1,0-0.5,0.1-0.8,0.1
			c-2,0.1-4.1,0.5-3.3-2.8c0.2-0.7-0.5-1.6-0.8-2.4C418.1,381.6,419.9,378.9,419,377.2z"/>
		<path class="st5" d="M185.8,377.2c-0.5-1.2-0.2-2.6,0.9-2.9c1.6-0.5,1.1,1.2,1.4,1.9c1.8,3.7,1.9,8.1,4.7,11.4
			c-0.2,0-0.6,0.1-0.9,0.2c-2,0.1-4.1,0.5-3.3-2.8c0.2-0.7-0.5-1.6-0.8-2.4C184.9,381.6,186.6,378.9,185.8,377.2z"/>
		<path class="st5" d="M391.2,373.6c1.5,0,3.2,0,5,0c-1.7,2.6-1.6,11.5,0.2,14c-1.8,0-3.5,0-5.1,0
			C392.4,383,392.5,378.3,391.2,373.6z"/>
		<path class="st10" d="M473.1,351.8c-1-1.4-2-3-1.3-4.8c0.5-1.1,2-0.8,3-0.8c1.4,0.1,1.7,1.2,1.8,2.4c0.1,1.7-1,3-1.4,4.5
			c0,0.5-0.3,0.9-0.8,1.1c-0.3,0-0.6,0-0.9-0.2C473,353.4,473.7,352.5,473.1,351.8z"/>
		<path class="st11" d="M472.9,405.7c-0.2-5.2-0.5-10.4-0.7-15.7c-0.8-0.5-1-1.3-0.9-2.2c0.1-0.7,0.3-1.2,0.9-1.6
			c0.1-0.2,0.2-0.5,0.3-0.7c0.2-0.5,0.4-0.5,0.6,0c1.5,3.7,0.7,7.6,0.7,11.5c0,3.2,0.4,6.2,2.3,8.8C475,406.1,473.9,405,472.9,405.7
			z"/>
		<path class="st1" d="M471.4,370.5c-0.2,1.1-0.4,2.2-0.6,3.3c-0.5,3.3-2.2,4.3-5.3,2.9c-0.2-3.7,2.2-5.5,5.1-6.9
			C471.1,369.7,471.4,370,471.4,370.5z"/>
		<path class="st5" d="M213.5,373.7c-1.1,4.8-1.2,9.3-0.1,14c-1,0.2-2.5,0.2-3.7,0c1.5-3.5,1-7.2,0.5-10.7
			C209.8,373.8,210.9,373.2,213.5,373.7z"/>
		<path class="st5" d="M455.1,387c1-3.7,2.1-7.5,0-11.2c3.5-0.3,3.8,2.7,4,4.7C459.2,383.1,458.6,386.1,455.1,387z"/>
		<path class="st12" d="M476.1,353.9c3.3-2.7,7.5-0.6,11-2.1c1.2,0.3,2.2,0.8,1.9,2.3c-0.2,0.3-0.4,0.6-0.7,0.9
			c-2.4,1.4-5.6,0.1-7.8,2.3c-0.3,0.2-0.6,0.3-1,0.3c-0.7-0.1-1.3-0.5-2-0.5c-0.3,0-0.7,0-1,0.1c-0.3,0-0.7-0.2-1-0.3
			c-0.3-0.2-0.4-0.5-0.5-0.9c-0.2-0.7-0.2-1.4,0.2-2C475.5,353.7,475.8,353.7,476.1,353.9z"/>
		<path class="st5" d="M293,385.4c0.9-3.2,0.8-6.4,0.1-9.6c3.6,0.2,3.3,3.4,3.4,5.5C296.6,382.8,296.2,385.7,293,385.4z"/>
		<path class="st13" d="M470,360.9c2.5,0.3,5,0.4,7.4,0.8c0.8,0.1,1.7,0.8,1.5,1.8c-0.3,1.1-1.2,0.4-1.9,0.4c-2,0-4-0.1-6-0.1
			C469.9,363.1,470.1,361.9,470,360.9z"/>
		<path class="st5" d="M449,376.6c-1.5,3.2,0.1,6.4-0.1,9.6c-3.3-1.7-4.1-8-1.3-10C447.9,376.1,448.5,376.5,449,376.6z"/>
		<path class="st14" d="M286.4,387c2.3,0.5,4.3-1,6.6-0.6c-3.4,2.2-7.2,1.2-11,1.5c3-3.2,2.8-11.6-0.1-14.1c0.9-0.6,1.9-0.3,2.9-0.2
			c0.3,0.3,0.5,0.6,0.6,1c0.3,3.8-0.1,7.7,0.3,11.5C285.8,386.4,286,386.7,286.4,387z"/>
		<path class="st15" d="M498.6,356.2c0.5,1,0.9,2,1.4,3c-0.2,0.4-0.2,0.9-0.8,0.9c-1.7-3-3.4-6-6.6-7.7c-0.5-0.5-0.5-1,0-1.5
			c2.4-0.7,3.6,0.7,4.9,2.4C498.4,354.1,499.2,354.9,498.6,356.2z"/>
		<path class="st16" d="M472.1,387.7c0,0.8,0,1.5,0.1,2.3c-1.3,0.8-2.7,1.5-4.3,0.7c-1.3-0.9-2.7-1.7-1.7-3.7
			c0.2-0.3,0.5-0.4,0.9-0.3c1,0.4,2.1,0.2,3.2,0.3C470.9,386.9,471.6,387.1,472.1,387.7z"/>
		<path class="st17" d="M498.6,356.2c-0.4-0.9-2-1.4-1.2-2.8c4.1,0.7,6.4,3.8,8.7,6.9c-1.8,0.4-2.7-1-3.7-2
			C501.3,357.2,500.1,356.3,498.6,356.2z"/>
		<path class="st18" d="M471.5,365.3c1.1,0,2.2,0,3.3-0.1c3.1-0.4,3.3,1,2,3.3c-1.8,1.5-3.2,0.7-4.4-0.9
			C471.7,366.9,471.5,366.1,471.5,365.3z"/>
		<path class="st19" d="M472.4,367.5c1.5,0.3,2.9,0.6,4.4,0.9c0,1.5-1.1,2.1-2.3,2.6c-0.5,1-1.3,0.9-2.1,0.5c-0.3-0.3-0.6-0.6-0.9-1
			c-0.3-0.3-0.5-0.5-0.8-0.8C471.2,369,472.5,368.8,472.4,367.5z"/>
		<path class="st20" d="M471.5,359.1c-0.5,0-1.1,0-1.6,0c-1.2-2-3.1-4,0.8-5.3c0.7,1,2.2,1.4,2.5,2.8c0,0.4,0,0.7,0,1.1
			C472.9,358.5,472.2,358.8,471.5,359.1z"/>
		<path class="st14" d="M284.7,373.9l0-0.4c2,0.3,4.2-0.6,6.1,0.7c-3.5-0.5-5.1,0.8-4.6,4.6c0.4,2.7,0.1,5.4,0.1,8.1
			c-0.2,0-0.5,0.1-0.7,0.1c-1.2-2.9-0.2-5.9-0.5-8.8C285,376.8,285.4,375.3,284.7,373.9z"/>
		<path class="st21" d="M492.5,351c0,0.5,0,1,0,1.5c-3.4,0.7,1,2.7-0.7,3.7c-0.8,0.1-1.5-0.2-2.2-0.7c-0.4-0.3-0.7-0.6-0.9-1
			c0-0.2-0.1-0.3-0.1-0.5c-0.5-0.7-1-1.4-1.6-2.2C488.9,351.2,490.6,350.3,492.5,351z"/>
		<path class="st0" d="M419,377.2c1.2,1.6,1.3,3.6,2.1,5.4c-1.2,0.6-2.4,0.7-3.7,0.7c-0.2-0.2-0.3-0.3-0.2-0.4
			c0.1-0.1,0.2-0.2,0.3-0.2C418,380.8,418.5,379,419,377.2z"/>
		<path class="st0" d="M146.8,377.2c1.2,1.6,1.3,3.6,2.1,5.4c-1.2,0.6-2.4,0.7-3.7,0.7c-0.2-0.2-0.3-0.3-0.2-0.4
			c0.1-0.1,0.2-0.2,0.3-0.2C145.7,380.8,146.3,379,146.8,377.2z"/>
		<path class="st0" d="M185.8,377.2c1.2,1.6,1.3,3.6,2.1,5.4c-1.2,0.6-2.4,0.7-3.7,0.7c-0.2-0.2-0.3-0.3-0.2-0.4
			c0.1-0.1,0.2-0.2,0.3-0.2C184.7,380.8,185.3,379,185.8,377.2z"/>
		<path class="st0" d="M234.5,377.2c1.2,1.6,1.3,3.6,2.1,5.4c-1.2,0.6-2.4,0.7-3.7,0.7c-0.2-0.2-0.3-0.3-0.2-0.4
			c0.1-0.1,0.2-0.2,0.3-0.2C233.5,380.8,234,379,234.5,377.2z"/>
		<path class="st0" d="M265.3,377.2c1.2,1.6,1.3,3.6,2.1,5.4c-1.2,0.6-2.4,0.7-3.7,0.7c0-0.2,0.1-0.4,0.1-0.6
			C264.2,380.8,264.8,379,265.3,377.2z"/>
		<path class="st5" d="M187,372.3c0.4-2,1.8-3.5,3.1-5c0.5-0.5,1-0.6,1.6-0.1c0.7,0.6,0.3,1-0.1,1.5c-1.2,1.5-2.4,3-3.7,4.5
			C187.6,372.9,187.3,372.6,187,372.3z"/>
		<path class="st5" d="M440.4,369c-2.9,4.5-5.5-0.5-8.4,0.2C434.8,366.9,437.6,371.6,440.4,369z"/>
		<path class="st22" d="M465.5,380.9c1.7,0.6,4.8-0.4,4.7,1.8c-0.1,1.7-3.1-0.2-4.8,0.6C466.5,382.5,466.8,381.7,465.5,380.9z"/>
		<path class="st5" d="M145.2,382.6c0,0.2,0,0.4-0.1,0.6c-0.8,1.3-2.6,2.7,0,4.2c-1.2,0.6-2.3,0.4-4,0
			C143.7,386.5,142.2,382.9,145.2,382.6z"/>
		<path class="st5" d="M417.5,382.6c0,0.2,0,0.4-0.1,0.6c-0.7,1.3-2.6,2.7,0,4.2c-1.2,0.6-2.3,0.4-4,0
			C416,386.5,414.5,382.9,417.5,382.6z"/>
		<path class="st5" d="M233,382.6c0,0.2,0,0.4-0.1,0.6c-0.8,1.3-2.6,2.7,0,4.2c-1.2,0.6-2.3,0.4-4,0
			C231.5,386.5,230,382.9,233,382.6z"/>
		<path class="st5" d="M184.2,382.6c0,0.2,0,0.4-0.1,0.6c-0.7,1.3-2.6,2.7,0,4.2c-1.2,0.6-2.3,0.4-4,0
			C182.7,386.5,181.2,382.9,184.2,382.6z"/>
		<path class="st23" d="M466.2,398.4c1.6,0.1,3.3,0.2,5.1,1.4c-2.2,1.4-4,0.1-5.7,0.1C465.8,399.3,466,398.9,466.2,398.4z"/>
		<path class="st5" d="M342.1,366.3c2.1,0.2,5.4-1.8,5.6,2.9C345.9,367.6,344.3,366.5,342.1,366.3z"/>
		<path class="st16" d="M472.3,357c-0.1-1.2-1.7-1.8-1.5-3.1c0.2,0.1,0.4,0.2,0.7,0.2c0.9,0.5,1.1-0.2,1.4-0.8
			c0.1-0.5,0.2-0.9,0.4-1.4c0.8,0.5,0.5,1.4,0.7,2.2c0.5,0.6,0.9,1.3,0.7,2.2c-0.2,0.6-0.6,1-1.2,1.2
			C472.9,357.4,472.6,357.3,472.3,357z"/>
		<path class="st24" d="M472.1,387.7c-0.6,0-1.1,0-1.7,0c-1-0.7-2.4,0-3.4-0.7c-0.3,0-0.6,0-0.9,0c-0.7-0.8-1.1-1.4,0.5-0.9
			c0.3,0.1,0.7,0.1,1,0.1c1.5,0,3,0,4.5,0C472.1,386.7,472.1,387.2,472.1,387.7z"/>
		<path class="st13" d="M472.8,353.2c-0.2,0.8-0.1,1.9-1.4,0.8C471.9,353.8,472.3,353.5,472.8,353.2z"/>
		<path class="st25" d="M476.1,353.9c-0.3,0-0.6,0-0.8,0.1c-0.2,0.2-0.5,0.2-0.7,0c0.2-0.3,0.5-0.6,0.7-0.8
			C475.5,353.4,475.8,353.7,476.1,353.9z"/>
		<path class="st1" d="M479.8,357c-0.4-3,1.3-3.4,3.7-3.2c1.6,0.1,3.1-0.4,4.7,0.2c0.2,0.4,0.7,0.5,1.1,0.7c0.4,0.3,0.7,0.6,1.1,0.9
			c1.2,1.3,2,2.7,3.1,4.1c1.6,1.8,1.7,4.1,2,6.2c0.2,1.4,0.1,3.1-2.1,3.1c-1.8,1.4-3.9,1.8-6.2,1.4c-1.6-1.2-3.8-1.3-5.2-2.9
			c-1.9-2.2-0.7-5.2-2-7.5c-0.1-0.5-0.1-1-0.2-1.5C479.3,358,479.6,357.5,479.8,357z"/>
		<path class="st26" d="M489.5,398.3c-0.4,3.7-4.1,4.4-6,6.8c-2.1,0.7-2.2-0.7-2.2-2.2c0.1-2.1,1.2-3.6,2.6-5c0.3-0.2,0.6-0.4,1-0.6
			c0.9-0.2,1.9-0.1,2.8-0.1c0.4,0,0.7,0.2,1,0.3C489,397.8,489.3,398,489.5,398.3z"/>
		<path class="st12" d="M493.3,369c2.8-3.5,0.2-6.6-0.8-9.8c-0.3-0.7,0-0.8,0.6-0.7c3,2.9,3.2,6.6,3.3,10.4c0.6,1.5,0.9,3-0.3,4.5
			C495.3,372,494.3,370.5,493.3,369z"/>
		<path class="st27" d="M485.2,398.2c-0.8,1.2-1.7,2.3-2.5,3.5c-0.9,1.3-1.5,2.7,0.8,3.3c-0.9,1.1-2,1.9-3.5,1.6
			c-0.3,0-0.6-0.1-0.9-0.1c2.3-2.2,0.9-5.1,1.5-7.6c0.7-0.8,1.4-1.5,2.2-2.3c0.6-0.5,1.3-0.7,2.1-0.4c0.3,0.2,0.5,0.5,0.6,0.9
			C485.5,397.5,485.4,397.9,485.2,398.2z"/>
		<path class="st28" d="M482.8,395.4c0-0.8-0.1-1.6-0.1-2.4c0.6-1.7,1.2-3.4,3.6-3c0.4,0.2,0.7,0.4,1,0.6c3.2,0.8,1.7,3.5,2.2,5.4
			c-0.3,0.6-0.7,1.2-1.6,1.2c-0.5-0.1-0.9-0.4-1.3-0.7C485.6,395.1,483.9,396.4,482.8,395.4z"/>
		<path class="st29" d="M496.2,373.4c0.1-1.5,0.2-3,0.3-4.5c0.3-0.5,0.6-1,0.9-1.5c-0.3,3.8,2,7.8-1.1,11.3
			C496.2,377,496.2,375.2,496.2,373.4z"/>
		<path class="st30" d="M487.1,375.8c-2.3-0.4-4.2,2.8-6.7,0.7c-0.2-0.3-0.3-0.6-0.3-0.9c1.1-1.8,3.1-2.5,4.8-3.6c0,0,0,0.1,0,0.1
			C487.6,372.2,487.1,374.2,487.1,375.8z"/>
		<path class="st31" d="M482.9,390.1c0.2-0.4,0.5-0.9,0.7-1.3c0.1-0.2,0.2-0.4,0.4-0.6c0.2-0.3,0.5-0.6,0.7-0.8
			c0.3-0.3,0.5-0.5,0.8-0.7c0.3-0.1,0.7,0,1-0.3c0.2,0,0.5,0,0.7,0c0,0.5,0,1,0,1.5c0.5,0.7-0.2,1.2-0.5,1.7
			c-0.2,0.2-0.5,0.4-0.8,0.5c-0.8,0.2-1.3,0.9-2.2,1.1C483.2,390.9,482.9,390.6,482.9,390.1z"/>
		<path class="st32" d="M487.9,396.7c0.5-0.2,1-0.5,1.5-0.7c0,0.7,0.1,1.5,0.1,2.2c-0.2-0.1-0.5-0.2-0.7-0.2
			c-0.3-0.1-0.5-0.1-0.8,0.1c-0.7,0.5-1.5,1.6-2.3,0.1c0-0.2,0.1-0.3,0.1-0.5c0.2-0.6,0.5-1.2,1.3-1.3
			C487.4,396.4,487.7,396.5,487.9,396.7z"/>
		<path class="st33" d="M486.4,388.8c0.3-0.4,0.5-0.7,0.8-1.1c1.7,0.7,0.1,1.4,0,2.2c-0.1,0.1-0.2,0.3-0.3,0.4
			c-0.3-0.1-0.6-0.2-0.8-0.6C486.2,389.4,486.3,389.1,486.4,388.8z"/>
		<path class="st0" d="M486.5,390c0.2-0.1,0.5-0.1,0.7-0.1c0,0.2,0,0.5,0,0.7c-0.3,0-0.5,0.1-0.8,0.1c-0.2-0.2-0.2-0.3-0.2-0.5
			C486.4,390.1,486.5,390,486.5,390z"/>
		<path class="st8" d="M499.1,360.2c0.3-0.3,0.5-0.6,0.8-0.9c1.3,3,2.3,6.1,1.5,9.5C500.7,365.9,499.9,363.1,499.1,360.2z"/>
		<path class="st34" d="M493.1,358.5c-0.2,0.2-0.4,0.5-0.6,0.7c-1-1.2-2-2.5-3-3.7l0-0.3c0.1-0.2,0.2-0.4,0.4-0.4c0,0,0.3,0,0.3,0
			c0.5,0.5,1.1,1,1.6,1.5C492.3,357,492.7,357.8,493.1,358.5z"/>
		<path class="st13" d="M480.7,375.9c0,0.2-0.1,0.4-0.2,0.6c-0.7,0.1-1.5,0.2-2.2,0.3c-4.7,0.7-6.8,1.8-5.9-5.3
			c0.7-0.2,1.4-0.3,2.1-0.5c2.4,0.2,2.6,3.1,4.4,4C479.9,374.5,480.4,375,480.7,375.9z"/>
		<path class="st35" d="M473,385.5c-0.2,0-0.4,0-0.6,0c-0.1-0.6-0.2-1.2-0.2-1.8c-0.3-4.8,2-6.6,6.6-4.8c2.3,0.9,0.7,3.2,1.1,4.9
			c-0.1,2.5-0.2,5-0.3,7.6c-0.2,0-0.4,0-0.6,0c0-2.6,0-5.1,0-7.7c0-2.1-0.1-4-3-4c-2.9,0-2.9,2-2.9,4.1
			C473,384.3,473,384.9,473,385.5z"/>
		<path class="st36" d="M482.8,395.4c1.9-0.5,2.8-2.8,4.9-3c1.1,1.4-0.9,2.3-0.5,3.6c-0.1,0.1-0.1,0.3-0.2,0.4
			c-0.3,0.4-0.7,0.7-1.2,0.8c-0.3,0-0.6-0.1-0.9-0.3c-0.7-0.1-1.5-0.2-2.2-0.3C482.8,396.3,482.8,395.8,482.8,395.4z"/>
		<path class="st9" d="M486.5,390c-0.1,0.2-0.1,0.5,0,0.7c-1.5,0.3-2.5,1.5-3.8,2.3c-0.5-0.7-1.5-1.1-0.8-2.2l0.3,0
			c0.2,0,0.4,0,0.6,0c0.2,0,0.4,0,0.6,0c0.8-0.5,1.5-0.9,2.3-1.4c0.2,0.1,0.4,0.2,0.5,0.3C486.4,389.8,486.5,389.9,486.5,390z"/>
		<path d="M485,387.6c-0.2,0.2-0.5,0.5-0.7,0.7c-0.3-0.1-0.4-0.2-0.5-0.5c0.1-0.3,0.1-0.6,0.2-0.8c0.3-0.2,0.6-0.3,1-0.3
			c0.2,0.2,0.3,0.4,0.3,0.5C485.1,387.5,485,387.6,485,387.6z"/>
		<path class="st0" d="M483.5,390.7c-0.3,0.2-0.5,0.4-0.8,0.6c-0.3-0.1-0.4-0.3-0.4-0.6l-0.2,0l-0.2,0.1c0.3-0.2,0.6-0.5,1-0.7
			C483.1,390.3,483.3,390.5,483.5,390.7z"/>
		<path class="st0" d="M485.9,384c0.7,0,1.6-0.1,0.6,1c-0.2,0-0.3,0.1-0.5,0.1c-0.1-0.1-0.3-0.2-0.4-0.3
			C485.5,384.5,485.5,384.2,485.9,384z"/>
		<path d="M483.7,387.9c0.2,0.1,0.4,0.3,0.5,0.5c-0.2,0.1-0.4,0.3-0.6,0.4C483.6,388.4,483.6,388.1,483.7,387.9z"/>
		<path class="st0" d="M484.9,386c0-0.4,0-0.9,0.1-1.3c0.3-0.3,0.6-0.2,0.8,0.1l-0.1-0.1c0.2,0.1,0.3,0.3,0.3,0.5
			c0,0.2-0.1,0.3-0.1,0.3l-0.1,0.1C485.6,385.9,485.3,386,484.9,386z"/>
		<path class="st27" d="M485.9,385.5c-0.1-0.3-0.1-0.6-0.2-0.8c0.3,0.1,0.5,0.2,0.8,0.3C486.3,385.2,486.1,385.4,485.9,385.5z"/>
		<path class="st27" d="M484.9,386c0.3-0.1,0.6-0.3,0.9-0.4c0,0.2,0,0.4,0,0.6c-0.1,0.1-0.3,0.2-0.4,0.3c-0.2,0-0.4-0.1-0.6-0.1
			c0-0.2,0.1-0.4,0.1-0.5C485,385.9,484.9,386,484.9,386z"/>
		<path class="st37" d="M485,387.4c-0.4-0.1-0.8-0.2-1.1-0.3c0.4-0.4,0.7-0.8,1.1-1.1c0.2,0.1,0.4,0.2,0.6,0.4
			C485.4,386.7,485.3,387,485,387.4z"/>
		<path class="st27" d="M486.6,386.3c-0.3,0.2-0.6,0.4-0.8,0.7c-0.2-0.1-0.3-0.2-0.3-0.3c0-0.1,0.1-0.2,0.1-0.2c0,0,0.2-0.2,0.2-0.2
			C486.1,386.2,486.3,386.2,486.6,386.3z"/>
		<path class="st19" d="M485.8,384.8c-0.3,0-0.5-0.1-0.8-0.1c0.3-0.2,0.6-0.4,0.9-0.7C485.8,384.3,485.8,384.5,485.8,384.8z"/>
		<path class="st9" d="M353.9,385.4c0-0.6-0.1-1.2-0.1-1.7c0-2.6,0-5.1,0.5-7.7c0,3.1,0,6.3,0,9.4
			C354.1,385.4,354,385.4,353.9,385.4z"/>
		<path class="st9" d="M246.7,385.2c0-3.1,0-6.2,0-9.3c0.1,0,0.3,0,0.4,0c0,3.1,0,6.3,0,9.4C246.9,385.3,246.8,385.2,246.7,385.2z"
			/>
		<path class="st38" d="M480.7,375.9c-0.6-0.3-1.2-0.6-1.8-0.9c0.1-0.2,0.1-0.5,0.2-0.7c0.3-0.4,0.5-0.9,0.1-1.4
			c-0.7-0.9-0.7-1.7,0.3-2.5c0.9-0.7,1.6-0.2,2.3,0.4c0.5,0.4,0.9,0.8,1.6,0.7c0.5,0.2,1.1,0.4,1.6,0.6
			C484.2,373.9,483.1,375.6,480.7,375.9z"/>
		<path class="st17" d="M483.5,371.4c-3-0.3-3-0.3-4.3,2.8c0.4-1.4-2.6-2.1-0.6-4.1C481.2,367.5,481.9,370.5,483.5,371.4z"/>
		<path class="st22" d="M479.9,360c2,2.2,1.3,5,2,7.5C478.3,365.8,480.7,362.5,479.9,360z"/>
		<path class="st39" d="M471.5,359.1c0.2-0.4,0.5-0.9,0.7-1.3c0.2-0.3,0.4-0.4,0.8-0.4c0.5,0,0.9-0.2,1.4-0.4c0.7,0,1.2,0.3,1.8,0.6
			c0.2,0.2,0.4,0.4,0.6,0.7c0.4,0.4,0.9,0.8,1.3,1.2C475.9,359.1,473.7,359.2,471.5,359.1z"/>
		<path class="st40" d="M474.5,357.9c-0.5-0.1-1-0.1-1.5-0.2c-0.3-0.1-0.4-0.3-0.3-0.6c0.3-0.3,0.6-0.6,1-0.9
			c0.4-0.4,0.8-0.6,1.4-0.5c0.3,0.1,0.6,0.3,0.9,0.5c0.3,0,0.6,0,0.8,0.1c0.3,0.3,0.7,0.4,0.9,0.7c0.1,0.3,0,0.5-0.2,0.7
			c-0.3,0.2-0.5,0.4-0.8,0.6c-0.2,0-0.4,0-0.5,0C475.7,358.2,475.1,358.2,474.5,357.9z"/>
		<path class="st0" d="M479.8,357c0,0.5,0,1,0,1.5c-0.5-0.3-1-0.6-1.4-0.9c-0.2-0.6-0.1-1,0.7-0.6C479.2,357,479.5,357,479.8,357z"
			/>
		<path class="st41" d="M479,357c-0.2,0.2-0.4,0.4-0.7,0.6l-0.4,0.1l-0.4,0c-0.1-0.2-0.1-0.4-0.1-0.6c-0.2-0.2-0.2-0.3-0.2-0.5
			c0.1-0.2,0.1-0.2,0.2-0.2C478.1,356.3,478.6,356.5,479,357z"/>
		<path class="st9" d="M338,368.6c1,2.6,1.2,13.4,0.3,17.3C337,383.6,336.8,372.1,338,368.6z"/>
		<path class="st9" d="M168.1,368.6c0,5.8,0,11.5,0,17.3c-0.3,0-0.5,0-0.8,0c0-5.8,0-11.5,0-17.3
			C167.6,368.6,167.9,368.6,168.1,368.6z"/>
		<path class="st9" d="M128.2,385.9c0-5.7,0-11.5,0-17.2c0.2,0,0.5,0,0.7,0c0,5.8,0,11.5,0,17.3
			C128.7,385.9,128.5,385.9,128.2,385.9z"/>
		<path class="st9" d="M220.8,376.2c0,3.1,0,6.1,0,9.2c-0.1,0-0.2,0-0.3,0c0-3.2,0-6.3,0-9.5C220.6,376,220.7,376.1,220.8,376.2z"/>
		<path class="st9" d="M302.1,385.9c-1.2-3.5-0.9-7-0.3-10.5C303.3,378.8,302.5,382.3,302.1,385.9z"/>
		<path class="st9" d="M405.3,375.2c0,3.4,0,6.8,0,10.2c-0.1,0-0.3,0-0.4,0c0-3.4,0-6.8,0-10.1C405.1,375.2,405.2,375.2,405.3,375.2
			z"/>
		<path class="st9" d="M316.2,385.9c-1.1-3.3-0.5-6.6-0.6-10.1C317.2,378.6,317.5,381.6,316.2,385.9z"/>
		<path class="st9" d="M393.5,385.9c-0.9-3.5-0.9-7-0.1-10.5C394.5,378.9,394.3,382.4,393.5,385.9z"/>
		<path class="st13" d="M475.3,356.3c-0.5,0-1.1,0-1.6,0c0-0.8,0.1-1.5,0.1-2.3c0.2,0,0.5,0,0.7,0c0.2,0,0.5,0,0.7,0
			c0.2,0.5,0.5,0.9,0.7,1.4C475.8,355.7,475.6,356,475.3,356.3z"/>
		<path class="st9" d="M211.5,385.4c0-3.1,0-6.2,0-9.4c0.1,0,0.2,0,0.3,0c0,3.1,0,6.2,0,9.4C211.6,385.4,211.5,385.4,211.5,385.4z"
			/>
		<path class="st42" d="M475.3,356.3c0.2-0.3,0.4-0.6,0.6-0.9c0,0.3,0.1,0.6,0.1,0.8C475.8,356.3,475.6,356.3,475.3,356.3z"/>
		<path class="st43" d="M488.8,354.7c-0.2-0.3-0.4-0.5-0.6-0.8c0.2,0,0.3,0,0.5,0.1c0,0,0,0.1,0,0.1c0.2,0.1,0.3,0.3,0.2,0.4
			C488.9,354.6,488.8,354.7,488.8,354.7z"/>
		<path class="st0" d="M477.5,356.4c0,0.2,0,0.5,0,0.7c-0.2-0.3-0.4-0.5-0.6-0.8C477.1,356.3,477.3,356.3,477.5,356.4z"/>
		<path class="st9" d="M284.7,373.9c1.9,4.3,0.5,8.8,0.9,13.2C283.5,382.8,285,378.3,284.7,373.9z"/>
		<path class="st44" d="M467,387c1.2-0.2,2.3,0.2,3.4,0.7C469.2,387.7,468,388.1,467,387z"/>
		<path class="st1" d="M472.8,357.1c0.1,0.2,0.2,0.4,0.3,0.6c-0.3,0-0.5,0-0.8,0.1c0-0.3,0-0.5,0-0.8
			C472.4,357,472.6,357.1,472.8,357.1z"/>
		<path d="M488.8,354.7c0-0.2,0-0.4,0-0.6c0.6,0,1.2,0,1.5,0.7c0,0-0.3,0.1-0.3,0.1l-0.2,0.2c-0.1,0.1-0.1,0.2-0.2,0.4
			C489.3,355.2,489,355,488.8,354.7z"/>
		<path class="st45" d="M485,358.5c0.8,0.3,2-1.1,2.2-0.2c0.2,1.4-1.3,0.7-2.1,0.9C484.6,359,484.6,358.8,485,358.5z"/>
		<path d="M484.2,359.3c0,0.2,0,0.4,0,0.6c-0.2,0.3-0.4,0.3-0.6,0C483.8,359.7,484,359.5,484.2,359.3
			C484.2,359.3,484.2,359.3,484.2,359.3z"/>
		<path class="st46" d="M483.6,359.9c0.2,0,0.4,0.1,0.6,0C484,360.3,483.8,360.3,483.6,359.9z"/>
		<path class="st47" d="M485,358.5c0,0.2,0,0.5,0.1,0.7c-0.3,0-0.6,0-0.9,0.1c0,0,0,0,0,0C484.5,359,484.8,358.8,485,358.5z"/>
		<path class="st0" d="M485.2,398.2c-0.1-0.2-0.2-0.4-0.2-0.6c0.2-0.4,0.4-0.4,0.8-0.2c0.2,0.3,0.2,0.6-0.1,0.8l0,0l-0.2,0
			L485.2,398.2z"/>
		<path class="st48" d="M488,398.1c0.3,0,0.5-0.1,0.8-0.1C488.5,398.1,488.2,398.1,488,398.1z"/>
		<path class="st43" d="M485.7,397.3c-0.2,0.1-0.4,0.2-0.6,0.3c0-0.2-0.1-0.4-0.1-0.7c0.2,0,0.3-0.1,0.5-0.1c0.2,0,0.5-0.2,0.7,0
			C486,397,485.8,397.1,485.7,397.3z"/>
		<path class="st6" d="M487.9,396.7c-0.2,0.1-0.4,0.1-0.6,0.2c-0.2-0.2-0.3-0.3-0.2-0.4c0.1-0.1,0.2-0.2,0.2-0.2
			c0,0-0.1-0.2-0.1-0.2C487.7,396,487.9,396.2,487.9,396.7z"/>
		<path d="M485.6,386.4c0,0.2,0.1,0.4,0.1,0.5c-0.3,0.2-0.5,0.4-0.8,0.7c0,0,0.1-0.3,0.1-0.2C485.2,387,485.4,386.7,485.6,386.4
			C485.5,386.3,485.6,386.4,485.6,386.4z"/>
		<path d="M486.3,389.7c-0.2-0.1-0.4-0.2-0.5-0.3c0.2-0.2,0.4-0.3,0.7-0.5C486.4,389.1,486.4,389.4,486.3,389.7z"/>
		<path class="st21" d="M487.3,396.2c0,0.2,0,0.4-0.1,0.6c-0.5,0.4-1,0.9-1.6,1.3c0-0.3,0-0.6,0-0.9c-0.1-0.1-0.2-0.3-0.2-0.4
			C486.1,396.6,486.7,396.4,487.3,396.2z"/>
		<path d="M489.7,355.1c0,0,0.2-0.2,0.2-0.2C489.9,354.9,489.7,355.1,489.7,355.1z"/>
		<path class="st0" d="M482.3,390.7c0.2,0.2,0.3,0.4,0.4,0.6C482.1,391.5,482.1,391.2,482.3,390.7z"/>
		<path class="st1" d="M474.5,357.9c0.6,0.2,1.2,0.3,1.8,0.5C475.7,358.2,475.1,358.1,474.5,357.9z"/>
	</g>
</g>
</svg>
